<?xml version="1.0" encoding="utf-8"?>
<svg xmlns="http://www.w3.org/2000/svg" xmlns:xlink="http://www.w3.org/1999/xlink" width="600" height="400" viewBox="0 0 2400 1600">
<defs>
  <clipPath id="clip200">
    <rect x="0" y="0" width="2400" height="1600"/>
  </clipPath>
</defs>
<path clip-path="url(#clip200)" d="M0 1600 L2400 1600 L2400 0 L0 0  Z" fill="#ffffff" fill-rule="evenodd" fill-opacity="1"/>
<defs>
  <clipPath id="clip201">
    <rect x="480" y="0" width="1681" height="1600"/>
  </clipPath>
</defs>
<path clip-path="url(#clip200)" d="M328.895 1486.45 L2352.76 1486.45 L2352.76 47.2441 L328.895 47.2441  Z" fill="#ffffff" fill-rule="evenodd" fill-opacity="1"/>
<defs>
  <clipPath id="clip202">
    <rect x="328" y="47" width="2025" height="1440"/>
  </clipPath>
</defs>
<polyline clip-path="url(#clip202)" style="stroke:#000000; stroke-linecap:round; stroke-linejoin:round; stroke-width:2; stroke-opacity:0.1; fill:none" points="740.767,1486.45 740.767,47.2441 "/>
<polyline clip-path="url(#clip202)" style="stroke:#000000; stroke-linecap:round; stroke-linejoin:round; stroke-width:2; stroke-opacity:0.1; fill:none" points="1246.6,1486.45 1246.6,47.2441 "/>
<polyline clip-path="url(#clip202)" style="stroke:#000000; stroke-linecap:round; stroke-linejoin:round; stroke-width:2; stroke-opacity:0.1; fill:none" points="1752.43,1486.45 1752.43,47.2441 "/>
<polyline clip-path="url(#clip202)" style="stroke:#000000; stroke-linecap:round; stroke-linejoin:round; stroke-width:2; stroke-opacity:0.1; fill:none" points="2258.26,1486.45 2258.26,47.2441 "/>
<polyline clip-path="url(#clip202)" style="stroke:#000000; stroke-linecap:round; stroke-linejoin:round; stroke-width:2; stroke-opacity:0.1; fill:none" points="328.895,1445.72 2352.76,1445.72 "/>
<polyline clip-path="url(#clip202)" style="stroke:#000000; stroke-linecap:round; stroke-linejoin:round; stroke-width:2; stroke-opacity:0.1; fill:none" points="328.895,1057.59 2352.76,1057.59 "/>
<polyline clip-path="url(#clip202)" style="stroke:#000000; stroke-linecap:round; stroke-linejoin:round; stroke-width:2; stroke-opacity:0.1; fill:none" points="328.895,669.463 2352.76,669.463 "/>
<polyline clip-path="url(#clip202)" style="stroke:#000000; stroke-linecap:round; stroke-linejoin:round; stroke-width:2; stroke-opacity:0.1; fill:none" points="328.895,281.336 2352.76,281.336 "/>
<polyline clip-path="url(#clip200)" style="stroke:#000000; stroke-linecap:round; stroke-linejoin:round; stroke-width:4; stroke-opacity:1; fill:none" points="328.895,1486.45 2352.76,1486.45 "/>
<polyline clip-path="url(#clip200)" style="stroke:#000000; stroke-linecap:round; stroke-linejoin:round; stroke-width:4; stroke-opacity:1; fill:none" points="740.767,1486.45 740.767,1467.55 "/>
<polyline clip-path="url(#clip200)" style="stroke:#000000; stroke-linecap:round; stroke-linejoin:round; stroke-width:4; stroke-opacity:1; fill:none" points="1246.6,1486.45 1246.6,1467.55 "/>
<polyline clip-path="url(#clip200)" style="stroke:#000000; stroke-linecap:round; stroke-linejoin:round; stroke-width:4; stroke-opacity:1; fill:none" points="1752.43,1486.45 1752.43,1467.55 "/>
<polyline clip-path="url(#clip200)" style="stroke:#000000; stroke-linecap:round; stroke-linejoin:round; stroke-width:4; stroke-opacity:1; fill:none" points="2258.26,1486.45 2258.26,1467.55 "/>
<path clip-path="url(#clip200)" d="M710.524 1532.02 L740.2 1532.02 L740.2 1535.95 L710.524 1535.95 L710.524 1532.02 Z" fill="#000000" fill-rule="nonzero" fill-opacity="1" /><path clip-path="url(#clip200)" d="M751.103 1544.91 L758.741 1544.91 L758.741 1518.55 L750.431 1520.21 L750.431 1515.95 L758.695 1514.29 L763.371 1514.29 L763.371 1544.91 L771.01 1544.91 L771.01 1548.85 L751.103 1548.85 L751.103 1544.91 Z" fill="#000000" fill-rule="nonzero" fill-opacity="1" /><path clip-path="url(#clip200)" d="M1246.6 1517.37 Q1242.99 1517.37 1241.16 1520.93 Q1239.35 1524.47 1239.35 1531.6 Q1239.35 1538.71 1241.16 1542.27 Q1242.99 1545.82 1246.6 1545.82 Q1250.23 1545.82 1252.04 1542.27 Q1253.87 1538.71 1253.87 1531.6 Q1253.87 1524.47 1252.04 1520.93 Q1250.23 1517.37 1246.6 1517.37 M1246.6 1513.66 Q1252.41 1513.66 1255.46 1518.27 Q1258.54 1522.85 1258.54 1531.6 Q1258.54 1540.33 1255.46 1544.94 Q1252.41 1549.52 1246.6 1549.52 Q1240.79 1549.52 1237.71 1544.94 Q1234.65 1540.33 1234.65 1531.6 Q1234.65 1522.85 1237.71 1518.27 Q1240.79 1513.66 1246.6 1513.66 Z" fill="#000000" fill-rule="nonzero" fill-opacity="1" /><path clip-path="url(#clip200)" d="M1742.81 1544.91 L1750.45 1544.91 L1750.45 1518.55 L1742.14 1520.21 L1742.14 1515.95 L1750.4 1514.29 L1755.08 1514.29 L1755.08 1544.91 L1762.72 1544.91 L1762.72 1548.85 L1742.81 1548.85 L1742.81 1544.91 Z" fill="#000000" fill-rule="nonzero" fill-opacity="1" /><path clip-path="url(#clip200)" d="M2252.91 1544.91 L2269.23 1544.91 L2269.23 1548.85 L2247.29 1548.85 L2247.29 1544.91 Q2249.95 1542.16 2254.54 1537.53 Q2259.14 1532.88 2260.32 1531.53 Q2262.57 1529.01 2263.45 1527.27 Q2264.35 1525.51 2264.35 1523.82 Q2264.35 1521.07 2262.41 1519.33 Q2260.48 1517.6 2257.38 1517.6 Q2255.18 1517.6 2252.73 1518.36 Q2250.3 1519.13 2247.52 1520.68 L2247.52 1515.95 Q2250.35 1514.82 2252.8 1514.24 Q2255.25 1513.66 2257.29 1513.66 Q2262.66 1513.66 2265.85 1516.35 Q2269.05 1519.03 2269.05 1523.52 Q2269.05 1525.65 2268.24 1527.57 Q2267.45 1529.47 2265.35 1532.07 Q2264.77 1532.74 2261.66 1535.95 Q2258.56 1539.15 2252.91 1544.91 Z" fill="#000000" fill-rule="nonzero" fill-opacity="1" /><polyline clip-path="url(#clip200)" style="stroke:#000000; stroke-linecap:round; stroke-linejoin:round; stroke-width:4; stroke-opacity:1; fill:none" points="328.895,1486.45 328.895,47.2441 "/>
<polyline clip-path="url(#clip200)" style="stroke:#000000; stroke-linecap:round; stroke-linejoin:round; stroke-width:4; stroke-opacity:1; fill:none" points="328.895,1445.72 347.792,1445.72 "/>
<polyline clip-path="url(#clip200)" style="stroke:#000000; stroke-linecap:round; stroke-linejoin:round; stroke-width:4; stroke-opacity:1; fill:none" points="328.895,1057.59 347.792,1057.59 "/>
<polyline clip-path="url(#clip200)" style="stroke:#000000; stroke-linecap:round; stroke-linejoin:round; stroke-width:4; stroke-opacity:1; fill:none" points="328.895,669.463 347.792,669.463 "/>
<polyline clip-path="url(#clip200)" style="stroke:#000000; stroke-linecap:round; stroke-linejoin:round; stroke-width:4; stroke-opacity:1; fill:none" points="328.895,281.336 347.792,281.336 "/>
<path clip-path="url(#clip200)" d="M280.95 1431.51 Q277.339 1431.51 275.511 1435.08 Q273.705 1438.62 273.705 1445.75 Q273.705 1452.86 275.511 1456.42 Q277.339 1459.96 280.95 1459.96 Q284.585 1459.96 286.39 1456.42 Q288.219 1452.86 288.219 1445.75 Q288.219 1438.62 286.39 1435.08 Q284.585 1431.51 280.95 1431.51 M280.95 1427.81 Q286.761 1427.81 289.816 1432.42 Q292.895 1437 292.895 1445.75 Q292.895 1454.48 289.816 1459.08 Q286.761 1463.67 280.95 1463.67 Q275.14 1463.67 272.062 1459.08 Q269.006 1454.48 269.006 1445.75 Q269.006 1437 272.062 1432.42 Q275.14 1427.81 280.95 1427.81 Z" fill="#000000" fill-rule="nonzero" fill-opacity="1" /><path clip-path="url(#clip200)" d="M52.4505 1046.76 L70.8068 1046.76 L70.8068 1050.69 L56.7328 1050.69 L56.7328 1059.16 Q57.7513 1058.82 58.7699 1058.65 Q59.7884 1058.47 60.8069 1058.47 Q66.5939 1058.47 69.9735 1061.64 Q73.3531 1064.81 73.3531 1070.23 Q73.3531 1075.81 69.8809 1078.91 Q66.4087 1081.99 60.0893 1081.99 Q57.9134 1081.99 55.6449 1081.62 Q53.3995 1081.25 50.9921 1080.51 L50.9921 1075.81 Q53.0754 1076.94 55.2977 1077.5 Q57.5199 1078.05 59.9967 1078.05 Q64.0013 1078.05 66.3393 1075.95 Q68.6772 1073.84 68.6772 1070.23 Q68.6772 1066.62 66.3393 1064.51 Q64.0013 1062.4 59.9967 1062.4 Q58.1217 1062.4 56.2467 1062.82 Q54.3949 1063.24 52.4505 1064.12 L52.4505 1046.76 Z" fill="#000000" fill-rule="nonzero" fill-opacity="1" /><path clip-path="url(#clip200)" d="M82.566 1075.44 L87.4503 1075.44 L87.4503 1081.32 L82.566 1081.32 L82.566 1075.44 Z" fill="#000000" fill-rule="nonzero" fill-opacity="1" /><path clip-path="url(#clip200)" d="M107.635 1049.84 Q104.024 1049.84 102.196 1053.4 Q100.39 1056.94 100.39 1064.07 Q100.39 1071.18 102.196 1074.74 Q104.024 1078.28 107.635 1078.28 Q111.27 1078.28 113.075 1074.74 Q114.904 1071.18 114.904 1064.07 Q114.904 1056.94 113.075 1053.4 Q111.27 1049.84 107.635 1049.84 M107.635 1046.13 Q113.445 1046.13 116.501 1050.74 Q119.58 1055.32 119.58 1064.07 Q119.58 1072.8 116.501 1077.4 Q113.445 1081.99 107.635 1081.99 Q101.825 1081.99 98.7465 1077.4 Q95.691 1072.8 95.691 1064.07 Q95.691 1055.32 98.7465 1050.74 Q101.825 1046.13 107.635 1046.13 Z" fill="#000000" fill-rule="nonzero" fill-opacity="1" /><path clip-path="url(#clip200)" d="M137.797 1049.84 Q134.186 1049.84 132.357 1053.4 Q130.552 1056.94 130.552 1064.07 Q130.552 1071.18 132.357 1074.74 Q134.186 1078.28 137.797 1078.28 Q141.431 1078.28 143.237 1074.74 Q145.066 1071.18 145.066 1064.07 Q145.066 1056.94 143.237 1053.4 Q141.431 1049.84 137.797 1049.84 M137.797 1046.13 Q143.607 1046.13 146.663 1050.74 Q149.742 1055.32 149.742 1064.07 Q149.742 1072.8 146.663 1077.4 Q143.607 1081.99 137.797 1081.99 Q131.987 1081.99 128.908 1077.4 Q125.853 1072.8 125.853 1064.07 Q125.853 1055.32 128.908 1050.74 Q131.987 1046.13 137.797 1046.13 Z" fill="#000000" fill-rule="nonzero" fill-opacity="1" /><path clip-path="url(#clip200)" d="M186.13 1055.85 L175.552 1066.48 L186.13 1077.06 L183.376 1079.86 L172.751 1069.23 L162.126 1079.86 L159.394 1077.06 L169.95 1066.48 L159.394 1055.85 L162.126 1053.05 L172.751 1063.68 L183.376 1053.05 L186.13 1055.85 Z" fill="#000000" fill-rule="nonzero" fill-opacity="1" /><path clip-path="url(#clip200)" d="M198.491 1077.38 L206.13 1077.38 L206.13 1051.02 L197.82 1052.68 L197.82 1048.42 L206.084 1046.76 L210.76 1046.76 L210.76 1077.38 L218.399 1077.38 L218.399 1081.32 L198.491 1081.32 L198.491 1077.38 Z" fill="#000000" fill-rule="nonzero" fill-opacity="1" /><path clip-path="url(#clip200)" d="M237.843 1049.84 Q234.232 1049.84 232.403 1053.4 Q230.598 1056.94 230.598 1064.07 Q230.598 1071.18 232.403 1074.74 Q234.232 1078.28 237.843 1078.28 Q241.477 1078.28 243.283 1074.74 Q245.111 1071.18 245.111 1064.07 Q245.111 1056.94 243.283 1053.4 Q241.477 1049.84 237.843 1049.84 M237.843 1046.13 Q243.653 1046.13 246.709 1050.74 Q249.787 1055.32 249.787 1064.07 Q249.787 1072.8 246.709 1077.4 Q243.653 1081.99 237.843 1081.99 Q232.033 1081.99 228.954 1077.4 Q225.899 1072.8 225.899 1064.07 Q225.899 1055.32 228.954 1050.74 Q232.033 1046.13 237.843 1046.13 Z" fill="#000000" fill-rule="nonzero" fill-opacity="1" /><path clip-path="url(#clip200)" d="M254.358 1050.71 L267.617 1050.71 L267.617 1053.91 L249.787 1053.91 L249.787 1050.71 Q251.95 1048.47 255.674 1044.71 Q259.417 1040.93 260.376 1039.84 Q262.2 1037.79 262.915 1036.38 Q263.649 1034.95 263.649 1033.58 Q263.649 1031.34 262.069 1029.93 Q260.508 1028.52 257.988 1028.52 Q256.201 1028.52 254.207 1029.14 Q252.232 1029.76 249.975 1031.02 L249.975 1027.18 Q252.27 1026.26 254.264 1025.79 Q256.257 1025.32 257.912 1025.32 Q262.276 1025.32 264.871 1027.5 Q267.467 1029.68 267.467 1033.33 Q267.467 1035.06 266.808 1036.62 Q266.169 1038.16 264.457 1040.27 Q263.987 1040.82 261.467 1043.43 Q258.947 1046.03 254.358 1050.71 Z" fill="#000000" fill-rule="nonzero" fill-opacity="1" /><path clip-path="url(#clip200)" d="M287.102 1038.77 Q289.829 1039.35 291.353 1041.19 Q292.895 1043.04 292.895 1045.74 Q292.895 1049.9 290.036 1052.18 Q287.177 1054.45 281.911 1054.45 Q280.143 1054.45 278.262 1054.09 Q276.4 1053.76 274.407 1053.06 L274.407 1049.39 Q275.987 1050.31 277.867 1050.78 Q279.748 1051.25 281.798 1051.25 Q285.372 1051.25 287.234 1049.84 Q289.114 1048.43 289.114 1045.74 Q289.114 1043.26 287.365 1041.87 Q285.635 1040.46 282.532 1040.46 L279.259 1040.46 L279.259 1037.34 L282.682 1037.34 Q285.485 1037.34 286.97 1036.23 Q288.456 1035.1 288.456 1032.99 Q288.456 1030.83 286.914 1029.68 Q285.39 1028.52 282.532 1028.52 Q280.971 1028.52 279.184 1028.85 Q277.397 1029.19 275.253 1029.91 L275.253 1026.52 Q277.416 1025.92 279.297 1025.62 Q281.196 1025.32 282.87 1025.32 Q287.196 1025.32 289.716 1027.29 Q292.236 1029.25 292.236 1032.6 Q292.236 1034.93 290.901 1036.55 Q289.566 1038.15 287.102 1038.77 Z" fill="#000000" fill-rule="nonzero" fill-opacity="1" /><path clip-path="url(#clip200)" d="M52.2928 689.255 L59.9316 689.255 L59.9316 662.89 L51.6215 664.556 L51.6215 660.297 L59.8853 658.63 L64.5612 658.63 L64.5612 689.255 L72.2001 689.255 L72.2001 693.19 L52.2928 693.19 L52.2928 689.255 Z" fill="#000000" fill-rule="nonzero" fill-opacity="1" /><path clip-path="url(#clip200)" d="M81.6445 687.311 L86.5287 687.311 L86.5287 693.19 L81.6445 693.19 L81.6445 687.311 Z" fill="#000000" fill-rule="nonzero" fill-opacity="1" /><path clip-path="url(#clip200)" d="M106.714 661.709 Q103.103 661.709 101.274 665.274 Q99.4684 668.816 99.4684 675.945 Q99.4684 683.052 101.274 686.616 Q103.103 690.158 106.714 690.158 Q110.348 690.158 112.154 686.616 Q113.982 683.052 113.982 675.945 Q113.982 668.816 112.154 665.274 Q110.348 661.709 106.714 661.709 M106.714 658.005 Q112.524 658.005 115.579 662.612 Q118.658 667.195 118.658 675.945 Q118.658 684.672 115.579 689.278 Q112.524 693.862 106.714 693.862 Q100.904 693.862 97.8249 689.278 Q94.7694 684.672 94.7694 675.945 Q94.7694 667.195 97.8249 662.612 Q100.904 658.005 106.714 658.005 Z" fill="#000000" fill-rule="nonzero" fill-opacity="1" /><path clip-path="url(#clip200)" d="M136.876 661.709 Q133.265 661.709 131.436 665.274 Q129.63 668.816 129.63 675.945 Q129.63 683.052 131.436 686.616 Q133.265 690.158 136.876 690.158 Q140.51 690.158 142.315 686.616 Q144.144 683.052 144.144 675.945 Q144.144 668.816 142.315 665.274 Q140.51 661.709 136.876 661.709 M136.876 658.005 Q142.686 658.005 145.741 662.612 Q148.82 667.195 148.82 675.945 Q148.82 684.672 145.741 689.278 Q142.686 693.862 136.876 693.862 Q131.065 693.862 127.987 689.278 Q124.931 684.672 124.931 675.945 Q124.931 667.195 127.987 662.612 Q131.065 658.005 136.876 658.005 Z" fill="#000000" fill-rule="nonzero" fill-opacity="1" /><path clip-path="url(#clip200)" d="M185.209 667.728 L174.63 678.353 L185.209 688.931 L182.454 691.732 L171.829 681.107 L161.204 691.732 L158.473 688.931 L169.028 678.353 L158.473 667.728 L161.204 664.927 L171.829 675.552 L182.454 664.927 L185.209 667.728 Z" fill="#000000" fill-rule="nonzero" fill-opacity="1" /><path clip-path="url(#clip200)" d="M197.57 689.255 L205.209 689.255 L205.209 662.89 L196.898 664.556 L196.898 660.297 L205.162 658.63 L209.838 658.63 L209.838 689.255 L217.477 689.255 L217.477 693.19 L197.57 693.19 L197.57 689.255 Z" fill="#000000" fill-rule="nonzero" fill-opacity="1" /><path clip-path="url(#clip200)" d="M236.921 661.709 Q233.31 661.709 231.482 665.274 Q229.676 668.816 229.676 675.945 Q229.676 683.052 231.482 686.616 Q233.31 690.158 236.921 690.158 Q240.556 690.158 242.361 686.616 Q244.19 683.052 244.19 675.945 Q244.19 668.816 242.361 665.274 Q240.556 661.709 236.921 661.709 M236.921 658.005 Q242.732 658.005 245.787 662.612 Q248.866 667.195 248.866 675.945 Q248.866 684.672 245.787 689.278 Q242.732 693.862 236.921 693.862 Q231.111 693.862 228.033 689.278 Q224.977 684.672 224.977 675.945 Q224.977 667.195 228.033 662.612 Q231.111 658.005 236.921 658.005 Z" fill="#000000" fill-rule="nonzero" fill-opacity="1" /><path clip-path="url(#clip200)" d="M253.436 662.583 L266.696 662.583 L266.696 665.78 L248.866 665.78 L248.866 662.583 Q251.029 660.345 254.753 656.583 Q258.495 652.803 259.455 651.712 Q261.279 649.662 261.994 648.251 Q262.727 646.822 262.727 645.449 Q262.727 643.211 261.147 641.8 Q259.586 640.39 257.066 640.39 Q255.279 640.39 253.286 641.01 Q251.311 641.631 249.054 642.891 L249.054 639.054 Q251.348 638.133 253.342 637.662 Q255.336 637.192 256.991 637.192 Q261.354 637.192 263.95 639.374 Q266.545 641.556 266.545 645.204 Q266.545 646.935 265.887 648.496 Q265.247 650.038 263.536 652.144 Q263.066 652.69 260.545 655.304 Q258.025 657.9 253.436 662.583 Z" fill="#000000" fill-rule="nonzero" fill-opacity="1" /><path clip-path="url(#clip200)" d="M285.108 641.01 L275.516 656 L285.108 656 L285.108 641.01 M284.112 637.7 L288.889 637.7 L288.889 656 L292.895 656 L292.895 659.16 L288.889 659.16 L288.889 665.78 L285.108 665.78 L285.108 659.16 L272.432 659.16 L272.432 655.492 L284.112 637.7 Z" fill="#000000" fill-rule="nonzero" fill-opacity="1" /><path clip-path="url(#clip200)" d="M52.2928 301.129 L59.9316 301.129 L59.9316 274.763 L51.6215 276.43 L51.6215 272.171 L59.8853 270.504 L64.5612 270.504 L64.5612 301.129 L72.2001 301.129 L72.2001 305.064 L52.2928 305.064 L52.2928 301.129 Z" fill="#000000" fill-rule="nonzero" fill-opacity="1" /><path clip-path="url(#clip200)" d="M81.6445 299.184 L86.5287 299.184 L86.5287 305.064 L81.6445 305.064 L81.6445 299.184 Z" fill="#000000" fill-rule="nonzero" fill-opacity="1" /><path clip-path="url(#clip200)" d="M96.7601 270.504 L115.116 270.504 L115.116 274.439 L101.042 274.439 L101.042 282.911 Q102.061 282.564 103.08 282.402 Q104.098 282.217 105.117 282.217 Q110.904 282.217 114.283 285.388 Q117.663 288.56 117.663 293.976 Q117.663 299.555 114.191 302.657 Q110.718 305.735 104.399 305.735 Q102.223 305.735 99.9545 305.365 Q97.7092 304.995 95.3018 304.254 L95.3018 299.555 Q97.3851 300.689 99.6073 301.245 Q101.83 301.8 104.306 301.8 Q108.311 301.8 110.649 299.694 Q112.987 297.587 112.987 293.976 Q112.987 290.365 110.649 288.259 Q108.311 286.152 104.306 286.152 Q102.431 286.152 100.556 286.569 Q98.7045 286.985 96.7601 287.865 L96.7601 270.504 Z" fill="#000000" fill-rule="nonzero" fill-opacity="1" /><path clip-path="url(#clip200)" d="M136.876 273.583 Q133.265 273.583 131.436 277.148 Q129.63 280.689 129.63 287.819 Q129.63 294.925 131.436 298.49 Q133.265 302.032 136.876 302.032 Q140.51 302.032 142.315 298.49 Q144.144 294.925 144.144 287.819 Q144.144 280.689 142.315 277.148 Q140.51 273.583 136.876 273.583 M136.876 269.879 Q142.686 269.879 145.741 274.486 Q148.82 279.069 148.82 287.819 Q148.82 296.546 145.741 301.152 Q142.686 305.735 136.876 305.735 Q131.065 305.735 127.987 301.152 Q124.931 296.546 124.931 287.819 Q124.931 279.069 127.987 274.486 Q131.065 269.879 136.876 269.879 Z" fill="#000000" fill-rule="nonzero" fill-opacity="1" /><path clip-path="url(#clip200)" d="M185.209 279.601 L174.63 290.226 L185.209 300.805 L182.454 303.606 L171.829 292.981 L161.204 303.606 L158.473 300.805 L169.028 290.226 L158.473 279.601 L161.204 276.8 L171.829 287.425 L182.454 276.8 L185.209 279.601 Z" fill="#000000" fill-rule="nonzero" fill-opacity="1" /><path clip-path="url(#clip200)" d="M197.57 301.129 L205.209 301.129 L205.209 274.763 L196.898 276.43 L196.898 272.171 L205.162 270.504 L209.838 270.504 L209.838 301.129 L217.477 301.129 L217.477 305.064 L197.57 305.064 L197.57 301.129 Z" fill="#000000" fill-rule="nonzero" fill-opacity="1" /><path clip-path="url(#clip200)" d="M236.921 273.583 Q233.31 273.583 231.482 277.148 Q229.676 280.689 229.676 287.819 Q229.676 294.925 231.482 298.49 Q233.31 302.032 236.921 302.032 Q240.556 302.032 242.361 298.49 Q244.19 294.925 244.19 287.819 Q244.19 280.689 242.361 277.148 Q240.556 273.583 236.921 273.583 M236.921 269.879 Q242.732 269.879 245.787 274.486 Q248.866 279.069 248.866 287.819 Q248.866 296.546 245.787 301.152 Q242.732 305.735 236.921 305.735 Q231.111 305.735 228.033 301.152 Q224.977 296.546 224.977 287.819 Q224.977 279.069 228.033 274.486 Q231.111 269.879 236.921 269.879 Z" fill="#000000" fill-rule="nonzero" fill-opacity="1" /><path clip-path="url(#clip200)" d="M253.436 274.456 L266.696 274.456 L266.696 277.654 L248.866 277.654 L248.866 274.456 Q251.029 272.218 254.753 268.457 Q258.495 264.676 259.455 263.585 Q261.279 261.535 261.994 260.125 Q262.727 258.695 262.727 257.322 Q262.727 255.084 261.147 253.674 Q259.586 252.263 257.066 252.263 Q255.279 252.263 253.286 252.884 Q251.311 253.504 249.054 254.765 L249.054 250.928 Q251.348 250.006 253.342 249.536 Q255.336 249.066 256.991 249.066 Q261.354 249.066 263.95 251.248 Q266.545 253.429 266.545 257.078 Q266.545 258.808 265.887 260.369 Q265.247 261.912 263.536 264.018 Q263.066 264.563 260.545 267.178 Q258.025 269.773 253.436 274.456 Z" fill="#000000" fill-rule="nonzero" fill-opacity="1" /><path clip-path="url(#clip200)" d="M285.108 252.884 L275.516 267.874 L285.108 267.874 L285.108 252.884 M284.112 249.574 L288.889 249.574 L288.889 267.874 L292.895 267.874 L292.895 271.033 L288.889 271.033 L288.889 277.654 L285.108 277.654 L285.108 271.033 L272.432 271.033 L272.432 267.366 L284.112 249.574 Z" fill="#000000" fill-rule="nonzero" fill-opacity="1" /><circle clip-path="url(#clip202)" cx="1029.79" cy="1445.72" r="14.4" fill="#009af9" fill-rule="evenodd" fill-opacity="1" stroke="#000000" stroke-opacity="1" stroke-width="3.2"/>
<circle clip-path="url(#clip202)" cx="797.926" cy="1445.72" r="14.4" fill="#009af9" fill-rule="evenodd" fill-opacity="1" stroke="#000000" stroke-opacity="1" stroke-width="3.2"/>
<circle clip-path="url(#clip202)" cx="1753.5" cy="1445.72" r="14.4" fill="#009af9" fill-rule="evenodd" fill-opacity="1" stroke="#000000" stroke-opacity="1" stroke-width="3.2"/>
<circle clip-path="url(#clip202)" cx="1283.71" cy="1445.72" r="14.4" fill="#009af9" fill-rule="evenodd" fill-opacity="1" stroke="#000000" stroke-opacity="1" stroke-width="3.2"/>
<circle clip-path="url(#clip202)" cx="913.889" cy="1445.72" r="14.4" fill="#009af9" fill-rule="evenodd" fill-opacity="1" stroke="#000000" stroke-opacity="1" stroke-width="3.2"/>
<circle clip-path="url(#clip202)" cx="649.389" cy="1445.72" r="14.4" fill="#009af9" fill-rule="evenodd" fill-opacity="1" stroke="#000000" stroke-opacity="1" stroke-width="3.2"/>
<circle clip-path="url(#clip202)" cx="945.863" cy="1445.72" r="14.4" fill="#009af9" fill-rule="evenodd" fill-opacity="1" stroke="#000000" stroke-opacity="1" stroke-width="3.2"/>
<circle clip-path="url(#clip202)" cx="696.856" cy="1445.72" r="14.4" fill="#009af9" fill-rule="evenodd" fill-opacity="1" stroke="#000000" stroke-opacity="1" stroke-width="3.2"/>
<circle clip-path="url(#clip202)" cx="1165.17" cy="1445.72" r="14.4" fill="#009af9" fill-rule="evenodd" fill-opacity="1" stroke="#000000" stroke-opacity="1" stroke-width="3.2"/>
<circle clip-path="url(#clip202)" cx="1865.46" cy="1445.72" r="14.4" fill="#009af9" fill-rule="evenodd" fill-opacity="1" stroke="#000000" stroke-opacity="1" stroke-width="3.2"/>
<circle clip-path="url(#clip202)" cx="615.294" cy="1445.72" r="14.4" fill="#009af9" fill-rule="evenodd" fill-opacity="1" stroke="#000000" stroke-opacity="1" stroke-width="3.2"/>
<circle clip-path="url(#clip202)" cx="1611.08" cy="1445.72" r="14.4" fill="#009af9" fill-rule="evenodd" fill-opacity="1" stroke="#000000" stroke-opacity="1" stroke-width="3.2"/>
<circle clip-path="url(#clip202)" cx="1118.35" cy="1445.72" r="14.4" fill="#009af9" fill-rule="evenodd" fill-opacity="1" stroke="#000000" stroke-opacity="1" stroke-width="3.2"/>
<circle clip-path="url(#clip202)" cx="1258.58" cy="1445.72" r="14.4" fill="#009af9" fill-rule="evenodd" fill-opacity="1" stroke="#000000" stroke-opacity="1" stroke-width="3.2"/>
<circle clip-path="url(#clip202)" cx="1665.69" cy="1445.72" r="14.4" fill="#009af9" fill-rule="evenodd" fill-opacity="1" stroke="#000000" stroke-opacity="1" stroke-width="3.2"/>
<circle clip-path="url(#clip202)" cx="2133.96" cy="1445.72" r="14.4" fill="#009af9" fill-rule="evenodd" fill-opacity="1" stroke="#000000" stroke-opacity="1" stroke-width="3.2"/>
<circle clip-path="url(#clip202)" cx="448.948" cy="1445.72" r="14.4" fill="#009af9" fill-rule="evenodd" fill-opacity="1" stroke="#000000" stroke-opacity="1" stroke-width="3.2"/>
<circle clip-path="url(#clip202)" cx="1669.67" cy="1445.72" r="14.4" fill="#009af9" fill-rule="evenodd" fill-opacity="1" stroke="#000000" stroke-opacity="1" stroke-width="3.2"/>
<circle clip-path="url(#clip202)" cx="1244.95" cy="1445.72" r="14.4" fill="#009af9" fill-rule="evenodd" fill-opacity="1" stroke="#000000" stroke-opacity="1" stroke-width="3.2"/>
<circle clip-path="url(#clip202)" cx="1451.79" cy="1445.72" r="14.4" fill="#009af9" fill-rule="evenodd" fill-opacity="1" stroke="#000000" stroke-opacity="1" stroke-width="3.2"/>
<circle clip-path="url(#clip202)" cx="1335" cy="1445.72" r="14.4" fill="#009af9" fill-rule="evenodd" fill-opacity="1" stroke="#000000" stroke-opacity="1" stroke-width="3.2"/>
<circle clip-path="url(#clip202)" cx="1915.23" cy="1445.72" r="14.4" fill="#009af9" fill-rule="evenodd" fill-opacity="1" stroke="#000000" stroke-opacity="1" stroke-width="3.2"/>
<circle clip-path="url(#clip202)" cx="933.492" cy="1445.72" r="14.4" fill="#009af9" fill-rule="evenodd" fill-opacity="1" stroke="#000000" stroke-opacity="1" stroke-width="3.2"/>
<circle clip-path="url(#clip202)" cx="1041.82" cy="1445.72" r="14.4" fill="#009af9" fill-rule="evenodd" fill-opacity="1" stroke="#000000" stroke-opacity="1" stroke-width="3.2"/>
<circle clip-path="url(#clip202)" cx="1802.26" cy="1445.72" r="14.4" fill="#009af9" fill-rule="evenodd" fill-opacity="1" stroke="#000000" stroke-opacity="1" stroke-width="3.2"/>
<circle clip-path="url(#clip202)" cx="1289.58" cy="1445.72" r="14.4" fill="#009af9" fill-rule="evenodd" fill-opacity="1" stroke="#000000" stroke-opacity="1" stroke-width="3.2"/>
<circle clip-path="url(#clip202)" cx="1120.62" cy="1445.72" r="14.4" fill="#009af9" fill-rule="evenodd" fill-opacity="1" stroke="#000000" stroke-opacity="1" stroke-width="3.2"/>
<circle clip-path="url(#clip202)" cx="1589.92" cy="1445.72" r="14.4" fill="#009af9" fill-rule="evenodd" fill-opacity="1" stroke="#000000" stroke-opacity="1" stroke-width="3.2"/>
<circle clip-path="url(#clip202)" cx="1242.78" cy="1445.72" r="14.4" fill="#009af9" fill-rule="evenodd" fill-opacity="1" stroke="#000000" stroke-opacity="1" stroke-width="3.2"/>
<circle clip-path="url(#clip202)" cx="949.834" cy="1445.72" r="14.4" fill="#009af9" fill-rule="evenodd" fill-opacity="1" stroke="#000000" stroke-opacity="1" stroke-width="3.2"/>
<circle clip-path="url(#clip202)" cx="1382.91" cy="1445.72" r="14.4" fill="#009af9" fill-rule="evenodd" fill-opacity="1" stroke="#000000" stroke-opacity="1" stroke-width="3.2"/>
<circle clip-path="url(#clip202)" cx="1841.98" cy="1445.72" r="14.4" fill="#009af9" fill-rule="evenodd" fill-opacity="1" stroke="#000000" stroke-opacity="1" stroke-width="3.2"/>
<circle clip-path="url(#clip202)" cx="1864.7" cy="1445.72" r="14.4" fill="#009af9" fill-rule="evenodd" fill-opacity="1" stroke="#000000" stroke-opacity="1" stroke-width="3.2"/>
<circle clip-path="url(#clip202)" cx="1033.62" cy="1445.72" r="14.4" fill="#009af9" fill-rule="evenodd" fill-opacity="1" stroke="#000000" stroke-opacity="1" stroke-width="3.2"/>
<circle clip-path="url(#clip202)" cx="602.868" cy="1445.72" r="14.4" fill="#009af9" fill-rule="evenodd" fill-opacity="1" stroke="#000000" stroke-opacity="1" stroke-width="3.2"/>
<circle clip-path="url(#clip202)" cx="515.609" cy="1445.72" r="14.4" fill="#009af9" fill-rule="evenodd" fill-opacity="1" stroke="#000000" stroke-opacity="1" stroke-width="3.2"/>
<circle clip-path="url(#clip202)" cx="1596.83" cy="1445.72" r="14.4" fill="#009af9" fill-rule="evenodd" fill-opacity="1" stroke="#000000" stroke-opacity="1" stroke-width="3.2"/>
<circle clip-path="url(#clip202)" cx="1352.31" cy="1445.72" r="14.4" fill="#009af9" fill-rule="evenodd" fill-opacity="1" stroke="#000000" stroke-opacity="1" stroke-width="3.2"/>
<circle clip-path="url(#clip202)" cx="1521.2" cy="1445.72" r="14.4" fill="#009af9" fill-rule="evenodd" fill-opacity="1" stroke="#000000" stroke-opacity="1" stroke-width="3.2"/>
<circle clip-path="url(#clip202)" cx="1480.04" cy="1445.72" r="14.4" fill="#009af9" fill-rule="evenodd" fill-opacity="1" stroke="#000000" stroke-opacity="1" stroke-width="3.2"/>
<circle clip-path="url(#clip202)" cx="1810.25" cy="1445.72" r="14.4" fill="#009af9" fill-rule="evenodd" fill-opacity="1" stroke="#000000" stroke-opacity="1" stroke-width="3.2"/>
<circle clip-path="url(#clip202)" cx="512.214" cy="1445.72" r="14.4" fill="#009af9" fill-rule="evenodd" fill-opacity="1" stroke="#000000" stroke-opacity="1" stroke-width="3.2"/>
<circle clip-path="url(#clip202)" cx="2140.49" cy="1445.72" r="14.4" fill="#009af9" fill-rule="evenodd" fill-opacity="1" stroke="#000000" stroke-opacity="1" stroke-width="3.2"/>
<circle clip-path="url(#clip202)" cx="1267.45" cy="1445.72" r="14.4" fill="#009af9" fill-rule="evenodd" fill-opacity="1" stroke="#000000" stroke-opacity="1" stroke-width="3.2"/>
<circle clip-path="url(#clip202)" cx="1245.89" cy="1445.72" r="14.4" fill="#009af9" fill-rule="evenodd" fill-opacity="1" stroke="#000000" stroke-opacity="1" stroke-width="3.2"/>
<circle clip-path="url(#clip202)" cx="1693.09" cy="1445.72" r="14.4" fill="#009af9" fill-rule="evenodd" fill-opacity="1" stroke="#000000" stroke-opacity="1" stroke-width="3.2"/>
<circle clip-path="url(#clip202)" cx="1812.51" cy="1445.72" r="14.4" fill="#009af9" fill-rule="evenodd" fill-opacity="1" stroke="#000000" stroke-opacity="1" stroke-width="3.2"/>
<circle clip-path="url(#clip202)" cx="743.461" cy="1445.72" r="14.4" fill="#009af9" fill-rule="evenodd" fill-opacity="1" stroke="#000000" stroke-opacity="1" stroke-width="3.2"/>
<circle clip-path="url(#clip202)" cx="1938.26" cy="1445.72" r="14.4" fill="#009af9" fill-rule="evenodd" fill-opacity="1" stroke="#000000" stroke-opacity="1" stroke-width="3.2"/>
<circle clip-path="url(#clip202)" cx="1392.14" cy="1445.72" r="14.4" fill="#009af9" fill-rule="evenodd" fill-opacity="1" stroke="#000000" stroke-opacity="1" stroke-width="3.2"/>
<circle clip-path="url(#clip202)" cx="1494.82" cy="1445.72" r="14.4" fill="#009af9" fill-rule="evenodd" fill-opacity="1" stroke="#000000" stroke-opacity="1" stroke-width="3.2"/>
<circle clip-path="url(#clip202)" cx="2295.48" cy="1445.72" r="14.4" fill="#009af9" fill-rule="evenodd" fill-opacity="1" stroke="#000000" stroke-opacity="1" stroke-width="3.2"/>
<circle clip-path="url(#clip202)" cx="815.106" cy="1445.72" r="14.4" fill="#009af9" fill-rule="evenodd" fill-opacity="1" stroke="#000000" stroke-opacity="1" stroke-width="3.2"/>
<circle clip-path="url(#clip202)" cx="1872.85" cy="1445.72" r="14.4" fill="#009af9" fill-rule="evenodd" fill-opacity="1" stroke="#000000" stroke-opacity="1" stroke-width="3.2"/>
<circle clip-path="url(#clip202)" cx="602.044" cy="1445.72" r="14.4" fill="#009af9" fill-rule="evenodd" fill-opacity="1" stroke="#000000" stroke-opacity="1" stroke-width="3.2"/>
<circle clip-path="url(#clip202)" cx="1899.11" cy="1445.72" r="14.4" fill="#009af9" fill-rule="evenodd" fill-opacity="1" stroke="#000000" stroke-opacity="1" stroke-width="3.2"/>
<circle clip-path="url(#clip202)" cx="834.293" cy="1445.72" r="14.4" fill="#009af9" fill-rule="evenodd" fill-opacity="1" stroke="#000000" stroke-opacity="1" stroke-width="3.2"/>
<circle clip-path="url(#clip202)" cx="1661.63" cy="1445.72" r="14.4" fill="#009af9" fill-rule="evenodd" fill-opacity="1" stroke="#000000" stroke-opacity="1" stroke-width="3.2"/>
<circle clip-path="url(#clip202)" cx="650.279" cy="1445.72" r="14.4" fill="#009af9" fill-rule="evenodd" fill-opacity="1" stroke="#000000" stroke-opacity="1" stroke-width="3.2"/>
<circle clip-path="url(#clip202)" cx="633.837" cy="1445.72" r="14.4" fill="#009af9" fill-rule="evenodd" fill-opacity="1" stroke="#000000" stroke-opacity="1" stroke-width="3.2"/>
<circle clip-path="url(#clip202)" cx="1619.91" cy="1445.72" r="14.4" fill="#009af9" fill-rule="evenodd" fill-opacity="1" stroke="#000000" stroke-opacity="1" stroke-width="3.2"/>
<circle clip-path="url(#clip202)" cx="1015.36" cy="1445.72" r="14.4" fill="#009af9" fill-rule="evenodd" fill-opacity="1" stroke="#000000" stroke-opacity="1" stroke-width="3.2"/>
<circle clip-path="url(#clip202)" cx="1492.66" cy="1445.72" r="14.4" fill="#009af9" fill-rule="evenodd" fill-opacity="1" stroke="#000000" stroke-opacity="1" stroke-width="3.2"/>
<circle clip-path="url(#clip202)" cx="1432.63" cy="1445.72" r="14.4" fill="#009af9" fill-rule="evenodd" fill-opacity="1" stroke="#000000" stroke-opacity="1" stroke-width="3.2"/>
<circle clip-path="url(#clip202)" cx="1505.59" cy="1445.72" r="14.4" fill="#009af9" fill-rule="evenodd" fill-opacity="1" stroke="#000000" stroke-opacity="1" stroke-width="3.2"/>
<circle clip-path="url(#clip202)" cx="1230.41" cy="1445.72" r="14.4" fill="#009af9" fill-rule="evenodd" fill-opacity="1" stroke="#000000" stroke-opacity="1" stroke-width="3.2"/>
<circle clip-path="url(#clip202)" cx="1002.92" cy="1445.72" r="14.4" fill="#009af9" fill-rule="evenodd" fill-opacity="1" stroke="#000000" stroke-opacity="1" stroke-width="3.2"/>
<circle clip-path="url(#clip202)" cx="1022.98" cy="1445.72" r="14.4" fill="#009af9" fill-rule="evenodd" fill-opacity="1" stroke="#000000" stroke-opacity="1" stroke-width="3.2"/>
<circle clip-path="url(#clip202)" cx="1290.25" cy="1445.72" r="14.4" fill="#009af9" fill-rule="evenodd" fill-opacity="1" stroke="#000000" stroke-opacity="1" stroke-width="3.2"/>
<circle clip-path="url(#clip202)" cx="1367.73" cy="1445.72" r="14.4" fill="#009af9" fill-rule="evenodd" fill-opacity="1" stroke="#000000" stroke-opacity="1" stroke-width="3.2"/>
<circle clip-path="url(#clip202)" cx="2190" cy="1445.72" r="14.4" fill="#009af9" fill-rule="evenodd" fill-opacity="1" stroke="#000000" stroke-opacity="1" stroke-width="3.2"/>
<circle clip-path="url(#clip202)" cx="1317.32" cy="1445.72" r="14.4" fill="#009af9" fill-rule="evenodd" fill-opacity="1" stroke="#000000" stroke-opacity="1" stroke-width="3.2"/>
<circle clip-path="url(#clip202)" cx="818.956" cy="1445.72" r="14.4" fill="#009af9" fill-rule="evenodd" fill-opacity="1" stroke="#000000" stroke-opacity="1" stroke-width="3.2"/>
<circle clip-path="url(#clip202)" cx="1010.22" cy="1445.72" r="14.4" fill="#009af9" fill-rule="evenodd" fill-opacity="1" stroke="#000000" stroke-opacity="1" stroke-width="3.2"/>
<circle clip-path="url(#clip202)" cx="559.715" cy="1445.72" r="14.4" fill="#009af9" fill-rule="evenodd" fill-opacity="1" stroke="#000000" stroke-opacity="1" stroke-width="3.2"/>
<circle clip-path="url(#clip202)" cx="558.143" cy="1445.72" r="14.4" fill="#009af9" fill-rule="evenodd" fill-opacity="1" stroke="#000000" stroke-opacity="1" stroke-width="3.2"/>
<circle clip-path="url(#clip202)" cx="1608.49" cy="1445.72" r="14.4" fill="#009af9" fill-rule="evenodd" fill-opacity="1" stroke="#000000" stroke-opacity="1" stroke-width="3.2"/>
<circle clip-path="url(#clip202)" cx="391.887" cy="1445.72" r="14.4" fill="#009af9" fill-rule="evenodd" fill-opacity="1" stroke="#000000" stroke-opacity="1" stroke-width="3.2"/>
<circle clip-path="url(#clip202)" cx="1940.08" cy="1445.72" r="14.4" fill="#009af9" fill-rule="evenodd" fill-opacity="1" stroke="#000000" stroke-opacity="1" stroke-width="3.2"/>
<circle clip-path="url(#clip202)" cx="951.383" cy="1445.72" r="14.4" fill="#009af9" fill-rule="evenodd" fill-opacity="1" stroke="#000000" stroke-opacity="1" stroke-width="3.2"/>
<circle clip-path="url(#clip202)" cx="493.175" cy="1445.72" r="14.4" fill="#009af9" fill-rule="evenodd" fill-opacity="1" stroke="#000000" stroke-opacity="1" stroke-width="3.2"/>
<circle clip-path="url(#clip202)" cx="1917.92" cy="1445.72" r="14.4" fill="#009af9" fill-rule="evenodd" fill-opacity="1" stroke="#000000" stroke-opacity="1" stroke-width="3.2"/>
<circle clip-path="url(#clip202)" cx="1753.16" cy="1445.72" r="14.4" fill="#009af9" fill-rule="evenodd" fill-opacity="1" stroke="#000000" stroke-opacity="1" stroke-width="3.2"/>
<circle clip-path="url(#clip202)" cx="496.377" cy="1445.72" r="14.4" fill="#009af9" fill-rule="evenodd" fill-opacity="1" stroke="#000000" stroke-opacity="1" stroke-width="3.2"/>
<circle clip-path="url(#clip202)" cx="1483.95" cy="1445.72" r="14.4" fill="#009af9" fill-rule="evenodd" fill-opacity="1" stroke="#000000" stroke-opacity="1" stroke-width="3.2"/>
<circle clip-path="url(#clip202)" cx="1148.42" cy="1445.72" r="14.4" fill="#009af9" fill-rule="evenodd" fill-opacity="1" stroke="#000000" stroke-opacity="1" stroke-width="3.2"/>
<circle clip-path="url(#clip202)" cx="1230.1" cy="1445.72" r="14.4" fill="#009af9" fill-rule="evenodd" fill-opacity="1" stroke="#000000" stroke-opacity="1" stroke-width="3.2"/>
<circle clip-path="url(#clip202)" cx="1633.73" cy="1445.72" r="14.4" fill="#009af9" fill-rule="evenodd" fill-opacity="1" stroke="#000000" stroke-opacity="1" stroke-width="3.2"/>
<circle clip-path="url(#clip202)" cx="1377.47" cy="1445.72" r="14.4" fill="#009af9" fill-rule="evenodd" fill-opacity="1" stroke="#000000" stroke-opacity="1" stroke-width="3.2"/>
<circle clip-path="url(#clip202)" cx="1437.29" cy="1445.72" r="14.4" fill="#009af9" fill-rule="evenodd" fill-opacity="1" stroke="#000000" stroke-opacity="1" stroke-width="3.2"/>
<circle clip-path="url(#clip202)" cx="1251.38" cy="1445.72" r="14.4" fill="#009af9" fill-rule="evenodd" fill-opacity="1" stroke="#000000" stroke-opacity="1" stroke-width="3.2"/>
<circle clip-path="url(#clip202)" cx="1199.42" cy="1445.72" r="14.4" fill="#009af9" fill-rule="evenodd" fill-opacity="1" stroke="#000000" stroke-opacity="1" stroke-width="3.2"/>
<circle clip-path="url(#clip202)" cx="386.174" cy="1445.72" r="14.4" fill="#009af9" fill-rule="evenodd" fill-opacity="1" stroke="#000000" stroke-opacity="1" stroke-width="3.2"/>
<circle clip-path="url(#clip202)" cx="2027.03" cy="1445.72" r="14.4" fill="#009af9" fill-rule="evenodd" fill-opacity="1" stroke="#000000" stroke-opacity="1" stroke-width="3.2"/>
<circle clip-path="url(#clip202)" cx="1739.25" cy="1445.72" r="14.4" fill="#009af9" fill-rule="evenodd" fill-opacity="1" stroke="#000000" stroke-opacity="1" stroke-width="3.2"/>
<circle clip-path="url(#clip202)" cx="1459.33" cy="1445.72" r="14.4" fill="#009af9" fill-rule="evenodd" fill-opacity="1" stroke="#000000" stroke-opacity="1" stroke-width="3.2"/>
<circle clip-path="url(#clip202)" cx="1467.08" cy="1445.72" r="14.4" fill="#009af9" fill-rule="evenodd" fill-opacity="1" stroke="#000000" stroke-opacity="1" stroke-width="3.2"/>
<circle clip-path="url(#clip202)" cx="1844.47" cy="1445.72" r="14.4" fill="#009af9" fill-rule="evenodd" fill-opacity="1" stroke="#000000" stroke-opacity="1" stroke-width="3.2"/>
<circle clip-path="url(#clip202)" cx="434.065" cy="1445.72" r="14.4" fill="#009af9" fill-rule="evenodd" fill-opacity="1" stroke="#000000" stroke-opacity="1" stroke-width="3.2"/>
<circle clip-path="url(#clip202)" cx="1038.13" cy="1445.72" r="14.4" fill="#009af9" fill-rule="evenodd" fill-opacity="1" stroke="#000000" stroke-opacity="1" stroke-width="3.2"/>
<polyline clip-path="url(#clip202)" style="stroke:#e26f46; stroke-linecap:round; stroke-linejoin:round; stroke-width:4; stroke-opacity:1; fill:none" points="386.174,1311.69 487.34,1243.71 588.507,1175.72 689.673,1107.74 790.839,1039.76 892.006,971.772 993.172,903.788 1094.34,835.803 1195.5,767.819 1296.67,699.835 1397.84,631.851 1499,563.866 1600.17,495.882 1701.34,427.898 1802.5,359.913 1903.67,291.929 2004.84,223.945 2106,155.961 2207.17,87.9763 "/>
<path clip-path="url(#clip200)" d="M396.357 250.738 L996.079 250.738 L996.079 95.2176 L396.357 95.2176  Z" fill="#ffffff" fill-rule="evenodd" fill-opacity="1"/>
<polyline clip-path="url(#clip200)" style="stroke:#000000; stroke-linecap:round; stroke-linejoin:round; stroke-width:4; stroke-opacity:1; fill:none" points="396.357,250.738 996.079,250.738 996.079,95.2176 396.357,95.2176 396.357,250.738 "/>
<circle clip-path="url(#clip200)" cx="486.306" cy="147.058" r="20.48" fill="#009af9" fill-rule="evenodd" fill-opacity="1" stroke="#000000" stroke-opacity="1" stroke-width="4.55111"/>
<path clip-path="url(#clip200)" d="M580.931 133.62 L580.931 160.495 L586.58 160.495 Q593.732 160.495 597.042 157.254 Q600.376 154.014 600.376 147.023 Q600.376 140.078 597.042 136.861 Q593.732 133.62 586.58 133.62 L580.931 133.62 M576.256 129.778 L585.862 129.778 Q595.908 129.778 600.607 133.967 Q605.306 138.134 605.306 147.023 Q605.306 155.958 600.584 160.148 Q595.862 164.338 585.862 164.338 L576.256 164.338 L576.256 129.778 Z" fill="#000000" fill-rule="nonzero" fill-opacity="1" /><path clip-path="url(#clip200)" d="M624.357 151.305 Q619.195 151.305 617.204 152.486 Q615.214 153.666 615.214 156.514 Q615.214 158.782 616.695 160.125 Q618.2 161.444 620.769 161.444 Q624.311 161.444 626.44 158.944 Q628.593 156.421 628.593 152.254 L628.593 151.305 L624.357 151.305 M632.852 149.546 L632.852 164.338 L628.593 164.338 L628.593 160.402 Q627.135 162.763 624.959 163.898 Q622.783 165.009 619.635 165.009 Q615.654 165.009 613.292 162.787 Q610.954 160.541 610.954 156.791 Q610.954 152.416 613.871 150.194 Q616.811 147.972 622.621 147.972 L628.593 147.972 L628.593 147.555 Q628.593 144.615 626.649 143.018 Q624.728 141.398 621.232 141.398 Q619.01 141.398 616.904 141.93 Q614.797 142.463 612.853 143.527 L612.853 139.592 Q615.191 138.69 617.39 138.25 Q619.589 137.787 621.672 137.787 Q627.297 137.787 630.075 140.703 Q632.852 143.62 632.852 149.546 Z" fill="#000000" fill-rule="nonzero" fill-opacity="1" /><path clip-path="url(#clip200)" d="M645.839 131.051 L645.839 138.412 L654.612 138.412 L654.612 141.722 L645.839 141.722 L645.839 155.796 Q645.839 158.967 646.695 159.87 Q647.575 160.773 650.237 160.773 L654.612 160.773 L654.612 164.338 L650.237 164.338 Q645.306 164.338 643.431 162.509 Q641.556 160.657 641.556 155.796 L641.556 141.722 L638.431 141.722 L638.431 138.412 L641.556 138.412 L641.556 131.051 L645.839 131.051 Z" fill="#000000" fill-rule="nonzero" fill-opacity="1" /><path clip-path="url(#clip200)" d="M671.996 151.305 Q666.834 151.305 664.843 152.486 Q662.852 153.666 662.852 156.514 Q662.852 158.782 664.334 160.125 Q665.838 161.444 668.408 161.444 Q671.95 161.444 674.079 158.944 Q676.232 156.421 676.232 152.254 L676.232 151.305 L671.996 151.305 M680.491 149.546 L680.491 164.338 L676.232 164.338 L676.232 160.402 Q674.774 162.763 672.598 163.898 Q670.422 165.009 667.274 165.009 Q663.292 165.009 660.931 162.787 Q658.593 160.541 658.593 156.791 Q658.593 152.416 661.51 150.194 Q664.45 147.972 670.26 147.972 L676.232 147.972 L676.232 147.555 Q676.232 144.615 674.287 143.018 Q672.366 141.398 668.871 141.398 Q666.649 141.398 664.542 141.93 Q662.436 142.463 660.491 143.527 L660.491 139.592 Q662.829 138.69 665.028 138.25 Q667.227 137.787 669.311 137.787 Q674.936 137.787 677.713 140.703 Q680.491 143.62 680.491 149.546 Z" fill="#000000" fill-rule="nonzero" fill-opacity="1" /><polyline clip-path="url(#clip200)" style="stroke:#e26f46; stroke-linecap:round; stroke-linejoin:round; stroke-width:4; stroke-opacity:1; fill:none" points="418.844,198.898 553.768,198.898 "/>
<path clip-path="url(#clip200)" d="M604.126 184.28 L604.126 189.21 Q601.765 187.011 599.08 185.923 Q596.418 184.835 593.408 184.835 Q587.482 184.835 584.334 188.469 Q581.186 192.08 581.186 198.932 Q581.186 205.761 584.334 209.395 Q587.482 213.006 593.408 213.006 Q596.418 213.006 599.08 211.918 Q601.765 210.83 604.126 208.631 L604.126 213.516 Q601.672 215.182 598.917 216.016 Q596.186 216.849 593.13 216.849 Q585.283 216.849 580.769 212.057 Q576.256 207.242 576.256 198.932 Q576.256 190.599 580.769 185.807 Q585.283 180.993 593.13 180.993 Q596.232 180.993 598.964 181.826 Q601.718 182.636 604.126 184.28 Z" fill="#000000" fill-rule="nonzero" fill-opacity="1" /><path clip-path="url(#clip200)" d="M610.723 205.946 L610.723 190.252 L614.982 190.252 L614.982 205.784 Q614.982 209.465 616.417 211.316 Q617.853 213.145 620.723 213.145 Q624.172 213.145 626.163 210.946 Q628.177 208.747 628.177 204.951 L628.177 190.252 L632.436 190.252 L632.436 216.178 L628.177 216.178 L628.177 212.196 Q626.626 214.557 624.565 215.715 Q622.528 216.849 619.82 216.849 Q615.353 216.849 613.038 214.071 Q610.723 211.293 610.723 205.946 M621.441 189.627 L621.441 189.627 Z" fill="#000000" fill-rule="nonzero" fill-opacity="1" /><path clip-path="url(#clip200)" d="M656.232 194.233 Q655.514 193.817 654.658 193.631 Q653.825 193.423 652.806 193.423 Q649.195 193.423 647.251 195.784 Q645.329 198.122 645.329 202.52 L645.329 216.178 L641.047 216.178 L641.047 190.252 L645.329 190.252 L645.329 194.28 Q646.672 191.918 648.825 190.784 Q650.977 189.627 654.056 189.627 Q654.496 189.627 655.028 189.696 Q655.561 189.743 656.209 189.858 L656.232 194.233 Z" fill="#000000" fill-rule="nonzero" fill-opacity="1" /><path clip-path="url(#clip200)" d="M674.889 194.233 Q674.172 193.817 673.315 193.631 Q672.482 193.423 671.463 193.423 Q667.852 193.423 665.908 195.784 Q663.987 198.122 663.987 202.52 L663.987 216.178 L659.704 216.178 L659.704 190.252 L663.987 190.252 L663.987 194.28 Q665.329 191.918 667.482 190.784 Q669.635 189.627 672.713 189.627 Q673.153 189.627 673.686 189.696 Q674.218 189.743 674.866 189.858 L674.889 194.233 Z" fill="#000000" fill-rule="nonzero" fill-opacity="1" /><path clip-path="url(#clip200)" d="M700.491 202.15 L700.491 204.233 L680.908 204.233 Q681.186 208.631 683.547 210.946 Q685.931 213.238 690.167 213.238 Q692.621 213.238 694.912 212.636 Q697.227 212.034 699.496 210.83 L699.496 214.858 Q697.204 215.83 694.797 216.34 Q692.389 216.849 689.912 216.849 Q683.709 216.849 680.074 213.238 Q676.463 209.627 676.463 203.469 Q676.463 197.104 679.889 193.377 Q683.338 189.627 689.172 189.627 Q694.403 189.627 697.435 193.006 Q700.491 196.363 700.491 202.15 M696.232 200.9 Q696.185 197.405 694.264 195.321 Q692.366 193.238 689.218 193.238 Q685.653 193.238 683.5 195.252 Q681.371 197.266 681.047 200.923 L696.232 200.9 Z" fill="#000000" fill-rule="nonzero" fill-opacity="1" /><path clip-path="url(#clip200)" d="M729.033 200.529 L729.033 216.178 L724.773 216.178 L724.773 200.668 Q724.773 196.988 723.338 195.159 Q721.903 193.33 719.033 193.33 Q715.584 193.33 713.593 195.53 Q711.602 197.729 711.602 201.525 L711.602 216.178 L707.32 216.178 L707.32 190.252 L711.602 190.252 L711.602 194.28 Q713.13 191.942 715.19 190.784 Q717.273 189.627 719.982 189.627 Q724.449 189.627 726.741 192.405 Q729.033 195.159 729.033 200.529 Z" fill="#000000" fill-rule="nonzero" fill-opacity="1" /><path clip-path="url(#clip200)" d="M741.741 182.891 L741.741 190.252 L750.514 190.252 L750.514 193.562 L741.741 193.562 L741.741 207.636 Q741.741 210.807 742.597 211.71 Q743.477 212.613 746.139 212.613 L750.514 212.613 L750.514 216.178 L746.139 216.178 Q741.208 216.178 739.333 214.349 Q737.458 212.497 737.458 207.636 L737.458 193.562 L734.333 193.562 L734.333 190.252 L737.458 190.252 L737.458 182.891 L741.741 182.891 Z" fill="#000000" fill-rule="nonzero" fill-opacity="1" /><path clip-path="url(#clip200)" d="M771.37 181.618 L793.222 181.618 L793.222 185.553 L776.046 185.553 L776.046 195.784 L792.504 195.784 L792.504 199.719 L776.046 199.719 L776.046 212.242 L793.639 212.242 L793.639 216.178 L771.37 216.178 L771.37 181.618 Z" fill="#000000" fill-rule="nonzero" fill-opacity="1" /><path clip-path="url(#clip200)" d="M817.666 191.016 L817.666 195.043 Q815.861 194.117 813.916 193.655 Q811.972 193.192 809.889 193.192 Q806.717 193.192 805.12 194.164 Q803.546 195.136 803.546 197.08 Q803.546 198.562 804.68 199.418 Q805.815 200.252 809.24 201.016 L810.699 201.34 Q815.236 202.312 817.134 204.094 Q819.055 205.854 819.055 209.025 Q819.055 212.636 816.185 214.742 Q813.338 216.849 808.338 216.849 Q806.254 216.849 803.986 216.432 Q801.74 216.039 799.24 215.228 L799.24 210.83 Q801.602 212.057 803.893 212.682 Q806.185 213.284 808.43 213.284 Q811.439 213.284 813.06 212.266 Q814.68 211.224 814.68 209.349 Q814.68 207.613 813.5 206.687 Q812.342 205.761 808.384 204.904 L806.902 204.557 Q802.944 203.724 801.185 202.011 Q799.426 200.275 799.426 197.266 Q799.426 193.608 802.018 191.618 Q804.611 189.627 809.379 189.627 Q811.74 189.627 813.824 189.974 Q815.907 190.321 817.666 191.016 Z" fill="#000000" fill-rule="nonzero" fill-opacity="1" /><path clip-path="url(#clip200)" d="M830.051 182.891 L830.051 190.252 L838.824 190.252 L838.824 193.562 L830.051 193.562 L830.051 207.636 Q830.051 210.807 830.907 211.71 Q831.787 212.613 834.449 212.613 L838.824 212.613 L838.824 216.178 L834.449 216.178 Q829.518 216.178 827.643 214.349 Q825.768 212.497 825.768 207.636 L825.768 193.562 L822.643 193.562 L822.643 190.252 L825.768 190.252 L825.768 182.891 L830.051 182.891 Z" fill="#000000" fill-rule="nonzero" fill-opacity="1" /><path clip-path="url(#clip200)" d="M844.425 190.252 L848.685 190.252 L848.685 216.178 L844.425 216.178 L844.425 190.252 M844.425 180.159 L848.685 180.159 L848.685 185.553 L844.425 185.553 L844.425 180.159 Z" fill="#000000" fill-rule="nonzero" fill-opacity="1" /><path clip-path="url(#clip200)" d="M877.782 195.229 Q879.379 192.358 881.601 190.993 Q883.823 189.627 886.833 189.627 Q890.884 189.627 893.083 192.474 Q895.282 195.298 895.282 200.529 L895.282 216.178 L890.999 216.178 L890.999 200.668 Q890.999 196.942 889.68 195.136 Q888.36 193.33 885.652 193.33 Q882.342 193.33 880.421 195.53 Q878.499 197.729 878.499 201.525 L878.499 216.178 L874.217 216.178 L874.217 200.668 Q874.217 196.918 872.898 195.136 Q871.578 193.33 868.823 193.33 Q865.56 193.33 863.638 195.553 Q861.717 197.752 861.717 201.525 L861.717 216.178 L857.435 216.178 L857.435 190.252 L861.717 190.252 L861.717 194.28 Q863.175 191.895 865.212 190.761 Q867.249 189.627 870.05 189.627 Q872.874 189.627 874.842 191.062 Q876.833 192.497 877.782 195.229 Z" fill="#000000" fill-rule="nonzero" fill-opacity="1" /><path clip-path="url(#clip200)" d="M915.559 203.145 Q910.397 203.145 908.407 204.326 Q906.416 205.506 906.416 208.354 Q906.416 210.622 907.897 211.965 Q909.402 213.284 911.971 213.284 Q915.513 213.284 917.643 210.784 Q919.795 208.261 919.795 204.094 L919.795 203.145 L915.559 203.145 M924.055 201.386 L924.055 216.178 L919.795 216.178 L919.795 212.242 Q918.337 214.603 916.161 215.738 Q913.985 216.849 910.837 216.849 Q906.856 216.849 904.495 214.627 Q902.157 212.381 902.157 208.631 Q902.157 204.256 905.073 202.034 Q908.013 199.812 913.823 199.812 L919.795 199.812 L919.795 199.395 Q919.795 196.455 917.851 194.858 Q915.93 193.238 912.434 193.238 Q910.212 193.238 908.106 193.77 Q905.999 194.303 904.055 195.367 L904.055 191.432 Q906.393 190.53 908.592 190.09 Q910.791 189.627 912.874 189.627 Q918.499 189.627 921.277 192.543 Q924.055 195.46 924.055 201.386 Z" fill="#000000" fill-rule="nonzero" fill-opacity="1" /><path clip-path="url(#clip200)" d="M937.041 182.891 L937.041 190.252 L945.814 190.252 L945.814 193.562 L937.041 193.562 L937.041 207.636 Q937.041 210.807 937.897 211.71 Q938.777 212.613 941.439 212.613 L945.814 212.613 L945.814 216.178 L941.439 216.178 Q936.508 216.178 934.633 214.349 Q932.758 212.497 932.758 207.636 L932.758 193.562 L929.633 193.562 L929.633 190.252 L932.758 190.252 L932.758 182.891 L937.041 182.891 Z" fill="#000000" fill-rule="nonzero" fill-opacity="1" /><path clip-path="url(#clip200)" d="M973.591 202.15 L973.591 204.233 L954.008 204.233 Q954.286 208.631 956.647 210.946 Q959.031 213.238 963.267 213.238 Q965.721 213.238 968.013 212.636 Q970.328 212.034 972.596 210.83 L972.596 214.858 Q970.304 215.83 967.897 216.34 Q965.49 216.849 963.013 216.849 Q956.809 216.849 953.175 213.238 Q949.564 209.627 949.564 203.469 Q949.564 197.104 952.99 193.377 Q956.439 189.627 962.272 189.627 Q967.503 189.627 970.536 193.006 Q973.591 196.363 973.591 202.15 M969.332 200.9 Q969.286 197.405 967.365 195.321 Q965.466 193.238 962.318 193.238 Q958.754 193.238 956.601 195.252 Q954.471 197.266 954.147 200.923 L969.332 200.9 Z" fill="#000000" fill-rule="nonzero" fill-opacity="1" /></svg>
