<?xml version="1.0" encoding="utf-8"?>
<svg xmlns="http://www.w3.org/2000/svg" xmlns:xlink="http://www.w3.org/1999/xlink" width="600" height="400" viewBox="0 0 2400 1600">
<defs>
  <clipPath id="clip600">
    <rect x="0" y="0" width="2400" height="1600"/>
  </clipPath>
</defs>
<path clip-path="url(#clip600)" d="M0 1600 L2400 1600 L2400 0 L0 0  Z" fill="#ffffff" fill-rule="evenodd" fill-opacity="1"/>
<defs>
  <clipPath id="clip601">
    <rect x="480" y="0" width="1681" height="1600"/>
  </clipPath>
</defs>
<path clip-path="url(#clip600)" d="M242.135 1486.45 L2352.76 1486.45 L2352.76 47.2441 L242.135 47.2441  Z" fill="#ffffff" fill-rule="evenodd" fill-opacity="1"/>
<defs>
  <clipPath id="clip602">
    <rect x="242" y="47" width="2112" height="1440"/>
  </clipPath>
</defs>
<polyline clip-path="url(#clip602)" style="stroke:#000000; stroke-linecap:round; stroke-linejoin:round; stroke-width:2; stroke-opacity:0.1; fill:none" points="301.869,1486.45 301.869,47.2441 "/>
<polyline clip-path="url(#clip602)" style="stroke:#000000; stroke-linecap:round; stroke-linejoin:round; stroke-width:2; stroke-opacity:0.1; fill:none" points="799.657,1486.45 799.657,47.2441 "/>
<polyline clip-path="url(#clip602)" style="stroke:#000000; stroke-linecap:round; stroke-linejoin:round; stroke-width:2; stroke-opacity:0.1; fill:none" points="1297.45,1486.45 1297.45,47.2441 "/>
<polyline clip-path="url(#clip602)" style="stroke:#000000; stroke-linecap:round; stroke-linejoin:round; stroke-width:2; stroke-opacity:0.1; fill:none" points="1795.23,1486.45 1795.23,47.2441 "/>
<polyline clip-path="url(#clip602)" style="stroke:#000000; stroke-linecap:round; stroke-linejoin:round; stroke-width:2; stroke-opacity:0.1; fill:none" points="2293.02,1486.45 2293.02,47.2441 "/>
<polyline clip-path="url(#clip602)" style="stroke:#000000; stroke-linecap:round; stroke-linejoin:round; stroke-width:2; stroke-opacity:0.1; fill:none" points="242.135,1389.97 2352.76,1389.97 "/>
<polyline clip-path="url(#clip602)" style="stroke:#000000; stroke-linecap:round; stroke-linejoin:round; stroke-width:2; stroke-opacity:0.1; fill:none" points="242.135,1148.64 2352.76,1148.64 "/>
<polyline clip-path="url(#clip602)" style="stroke:#000000; stroke-linecap:round; stroke-linejoin:round; stroke-width:2; stroke-opacity:0.1; fill:none" points="242.135,907.306 2352.76,907.306 "/>
<polyline clip-path="url(#clip602)" style="stroke:#000000; stroke-linecap:round; stroke-linejoin:round; stroke-width:2; stroke-opacity:0.1; fill:none" points="242.135,665.973 2352.76,665.973 "/>
<polyline clip-path="url(#clip602)" style="stroke:#000000; stroke-linecap:round; stroke-linejoin:round; stroke-width:2; stroke-opacity:0.1; fill:none" points="242.135,424.64 2352.76,424.64 "/>
<polyline clip-path="url(#clip602)" style="stroke:#000000; stroke-linecap:round; stroke-linejoin:round; stroke-width:2; stroke-opacity:0.1; fill:none" points="242.135,183.307 2352.76,183.307 "/>
<polyline clip-path="url(#clip600)" style="stroke:#000000; stroke-linecap:round; stroke-linejoin:round; stroke-width:4; stroke-opacity:1; fill:none" points="242.135,1486.45 2352.76,1486.45 "/>
<polyline clip-path="url(#clip600)" style="stroke:#000000; stroke-linecap:round; stroke-linejoin:round; stroke-width:4; stroke-opacity:1; fill:none" points="301.869,1486.45 301.869,1467.55 "/>
<polyline clip-path="url(#clip600)" style="stroke:#000000; stroke-linecap:round; stroke-linejoin:round; stroke-width:4; stroke-opacity:1; fill:none" points="799.657,1486.45 799.657,1467.55 "/>
<polyline clip-path="url(#clip600)" style="stroke:#000000; stroke-linecap:round; stroke-linejoin:round; stroke-width:4; stroke-opacity:1; fill:none" points="1297.45,1486.45 1297.45,1467.55 "/>
<polyline clip-path="url(#clip600)" style="stroke:#000000; stroke-linecap:round; stroke-linejoin:round; stroke-width:4; stroke-opacity:1; fill:none" points="1795.23,1486.45 1795.23,1467.55 "/>
<polyline clip-path="url(#clip600)" style="stroke:#000000; stroke-linecap:round; stroke-linejoin:round; stroke-width:4; stroke-opacity:1; fill:none" points="2293.02,1486.45 2293.02,1467.55 "/>
<path clip-path="url(#clip600)" d="M255.932 1532.02 L285.608 1532.02 L285.608 1535.95 L255.932 1535.95 L255.932 1532.02 Z" fill="#000000" fill-rule="nonzero" fill-opacity="1" /><path clip-path="url(#clip600)" d="M296.51 1544.91 L304.149 1544.91 L304.149 1518.55 L295.839 1520.21 L295.839 1515.95 L304.103 1514.29 L308.779 1514.29 L308.779 1544.91 L316.418 1544.91 L316.418 1548.85 L296.51 1548.85 L296.51 1544.91 Z" fill="#000000" fill-rule="nonzero" fill-opacity="1" /><path clip-path="url(#clip600)" d="M335.862 1517.37 Q332.251 1517.37 330.422 1520.93 Q328.617 1524.47 328.617 1531.6 Q328.617 1538.71 330.422 1542.27 Q332.251 1545.82 335.862 1545.82 Q339.496 1545.82 341.302 1542.27 Q343.131 1538.71 343.131 1531.6 Q343.131 1524.47 341.302 1520.93 Q339.496 1517.37 335.862 1517.37 M335.862 1513.66 Q341.672 1513.66 344.728 1518.27 Q347.806 1522.85 347.806 1531.6 Q347.806 1540.33 344.728 1544.94 Q341.672 1549.52 335.862 1549.52 Q330.052 1549.52 326.973 1544.94 Q323.918 1540.33 323.918 1531.6 Q323.918 1522.85 326.973 1518.27 Q330.052 1513.66 335.862 1513.66 Z" fill="#000000" fill-rule="nonzero" fill-opacity="1" /><path clip-path="url(#clip600)" d="M769.299 1532.02 L798.974 1532.02 L798.974 1535.95 L769.299 1535.95 L769.299 1532.02 Z" fill="#000000" fill-rule="nonzero" fill-opacity="1" /><path clip-path="url(#clip600)" d="M809.113 1514.29 L827.47 1514.29 L827.47 1518.22 L813.396 1518.22 L813.396 1526.7 Q814.414 1526.35 815.433 1526.19 Q816.451 1526 817.47 1526 Q823.257 1526 826.636 1529.17 Q830.016 1532.34 830.016 1537.76 Q830.016 1543.34 826.544 1546.44 Q823.071 1549.52 816.752 1549.52 Q814.576 1549.52 812.308 1549.15 Q810.062 1548.78 807.655 1548.04 L807.655 1543.34 Q809.738 1544.47 811.96 1545.03 Q814.183 1545.58 816.659 1545.58 Q820.664 1545.58 823.002 1543.48 Q825.34 1541.37 825.34 1537.76 Q825.34 1534.15 823.002 1532.04 Q820.664 1529.94 816.659 1529.94 Q814.784 1529.94 812.91 1530.35 Q811.058 1530.77 809.113 1531.65 L809.113 1514.29 Z" fill="#000000" fill-rule="nonzero" fill-opacity="1" /><path clip-path="url(#clip600)" d="M1297.45 1517.37 Q1293.83 1517.37 1292.01 1520.93 Q1290.2 1524.47 1290.2 1531.6 Q1290.2 1538.71 1292.01 1542.27 Q1293.83 1545.82 1297.45 1545.82 Q1301.08 1545.82 1302.89 1542.27 Q1304.71 1538.71 1304.71 1531.6 Q1304.71 1524.47 1302.89 1520.93 Q1301.08 1517.37 1297.45 1517.37 M1297.45 1513.66 Q1303.26 1513.66 1306.31 1518.27 Q1309.39 1522.85 1309.39 1531.6 Q1309.39 1540.33 1306.31 1544.94 Q1303.26 1549.52 1297.45 1549.52 Q1291.64 1549.52 1288.56 1544.94 Q1285.5 1540.33 1285.5 1531.6 Q1285.5 1522.85 1288.56 1518.27 Q1291.64 1513.66 1297.45 1513.66 Z" fill="#000000" fill-rule="nonzero" fill-opacity="1" /><path clip-path="url(#clip600)" d="M1785.51 1514.29 L1803.87 1514.29 L1803.87 1518.22 L1789.79 1518.22 L1789.79 1526.7 Q1790.81 1526.35 1791.83 1526.19 Q1792.85 1526 1793.87 1526 Q1799.65 1526 1803.03 1529.17 Q1806.41 1532.34 1806.41 1537.76 Q1806.41 1543.34 1802.94 1546.44 Q1799.47 1549.52 1793.15 1549.52 Q1790.97 1549.52 1788.71 1549.15 Q1786.46 1548.78 1784.05 1548.04 L1784.05 1543.34 Q1786.14 1544.47 1788.36 1545.03 Q1790.58 1545.58 1793.06 1545.58 Q1797.06 1545.58 1799.4 1543.48 Q1801.74 1541.37 1801.74 1537.76 Q1801.74 1534.15 1799.4 1532.04 Q1797.06 1529.94 1793.06 1529.94 Q1791.18 1529.94 1789.31 1530.35 Q1787.46 1530.77 1785.51 1531.65 L1785.51 1514.29 Z" fill="#000000" fill-rule="nonzero" fill-opacity="1" /><path clip-path="url(#clip600)" d="M2267.71 1544.91 L2275.35 1544.91 L2275.35 1518.55 L2267.04 1520.21 L2267.04 1515.95 L2275.3 1514.29 L2279.98 1514.29 L2279.98 1544.91 L2287.62 1544.91 L2287.62 1548.85 L2267.71 1548.85 L2267.71 1544.91 Z" fill="#000000" fill-rule="nonzero" fill-opacity="1" /><path clip-path="url(#clip600)" d="M2307.06 1517.37 Q2303.45 1517.37 2301.62 1520.93 Q2299.82 1524.47 2299.82 1531.6 Q2299.82 1538.71 2301.62 1542.27 Q2303.45 1545.82 2307.06 1545.82 Q2310.69 1545.82 2312.5 1542.27 Q2314.33 1538.71 2314.33 1531.6 Q2314.33 1524.47 2312.5 1520.93 Q2310.69 1517.37 2307.06 1517.37 M2307.06 1513.66 Q2312.87 1513.66 2315.93 1518.27 Q2319 1522.85 2319 1531.6 Q2319 1540.33 2315.93 1544.94 Q2312.87 1549.52 2307.06 1549.52 Q2301.25 1549.52 2298.17 1544.94 Q2295.12 1540.33 2295.12 1531.6 Q2295.12 1522.85 2298.17 1518.27 Q2301.25 1513.66 2307.06 1513.66 Z" fill="#000000" fill-rule="nonzero" fill-opacity="1" /><polyline clip-path="url(#clip600)" style="stroke:#000000; stroke-linecap:round; stroke-linejoin:round; stroke-width:4; stroke-opacity:1; fill:none" points="242.135,1486.45 242.135,47.2441 "/>
<polyline clip-path="url(#clip600)" style="stroke:#000000; stroke-linecap:round; stroke-linejoin:round; stroke-width:4; stroke-opacity:1; fill:none" points="242.135,1389.97 261.032,1389.97 "/>
<polyline clip-path="url(#clip600)" style="stroke:#000000; stroke-linecap:round; stroke-linejoin:round; stroke-width:4; stroke-opacity:1; fill:none" points="242.135,1148.64 261.032,1148.64 "/>
<polyline clip-path="url(#clip600)" style="stroke:#000000; stroke-linecap:round; stroke-linejoin:round; stroke-width:4; stroke-opacity:1; fill:none" points="242.135,907.306 261.032,907.306 "/>
<polyline clip-path="url(#clip600)" style="stroke:#000000; stroke-linecap:round; stroke-linejoin:round; stroke-width:4; stroke-opacity:1; fill:none" points="242.135,665.973 261.032,665.973 "/>
<polyline clip-path="url(#clip600)" style="stroke:#000000; stroke-linecap:round; stroke-linejoin:round; stroke-width:4; stroke-opacity:1; fill:none" points="242.135,424.64 261.032,424.64 "/>
<polyline clip-path="url(#clip600)" style="stroke:#000000; stroke-linecap:round; stroke-linejoin:round; stroke-width:4; stroke-opacity:1; fill:none" points="242.135,183.307 261.032,183.307 "/>
<path clip-path="url(#clip600)" d="M114.26 1390.42 L143.936 1390.42 L143.936 1394.36 L114.26 1394.36 L114.26 1390.42 Z" fill="#000000" fill-rule="nonzero" fill-opacity="1" /><path clip-path="url(#clip600)" d="M168.195 1388.62 Q171.552 1389.34 173.427 1391.6 Q175.325 1393.87 175.325 1397.21 Q175.325 1402.32 171.806 1405.12 Q168.288 1407.92 161.806 1407.92 Q159.63 1407.92 157.315 1407.48 Q155.024 1407.07 152.57 1406.21 L152.57 1401.7 Q154.515 1402.83 156.829 1403.41 Q159.144 1403.99 161.667 1403.99 Q166.065 1403.99 168.357 1402.25 Q170.672 1400.52 170.672 1397.21 Q170.672 1394.15 168.519 1392.44 Q166.39 1390.7 162.57 1390.7 L158.542 1390.7 L158.542 1386.86 L162.755 1386.86 Q166.204 1386.86 168.033 1385.49 Q169.862 1384.1 169.862 1381.51 Q169.862 1378.85 167.964 1377.44 Q166.089 1376 162.57 1376 Q160.649 1376 158.45 1376.42 Q156.251 1376.84 153.612 1377.72 L153.612 1373.55 Q156.274 1372.81 158.589 1372.44 Q160.927 1372.07 162.987 1372.07 Q168.311 1372.07 171.413 1374.5 Q174.514 1376.9 174.514 1381.03 Q174.514 1383.9 172.871 1385.89 Q171.227 1387.85 168.195 1388.62 Z" fill="#000000" fill-rule="nonzero" fill-opacity="1" /><path clip-path="url(#clip600)" d="M194.19 1375.77 Q190.579 1375.77 188.75 1379.34 Q186.945 1382.88 186.945 1390.01 Q186.945 1397.11 188.75 1400.68 Q190.579 1404.22 194.19 1404.22 Q197.825 1404.22 199.63 1400.68 Q201.459 1397.11 201.459 1390.01 Q201.459 1382.88 199.63 1379.34 Q197.825 1375.77 194.19 1375.77 M194.19 1372.07 Q200 1372.07 203.056 1376.67 Q206.135 1381.26 206.135 1390.01 Q206.135 1398.73 203.056 1403.34 Q200 1407.92 194.19 1407.92 Q188.38 1407.92 185.301 1403.34 Q182.246 1398.73 182.246 1390.01 Q182.246 1381.26 185.301 1376.67 Q188.38 1372.07 194.19 1372.07 Z" fill="#000000" fill-rule="nonzero" fill-opacity="1" /><path clip-path="url(#clip600)" d="M114.26 1149.09 L143.936 1149.09 L143.936 1153.03 L114.26 1153.03 L114.26 1149.09 Z" fill="#000000" fill-rule="nonzero" fill-opacity="1" /><path clip-path="url(#clip600)" d="M158.056 1161.98 L174.376 1161.98 L174.376 1165.92 L152.431 1165.92 L152.431 1161.98 Q155.093 1159.23 159.677 1154.6 Q164.283 1149.95 165.464 1148.6 Q167.709 1146.08 168.589 1144.35 Q169.491 1142.59 169.491 1140.9 Q169.491 1138.14 167.547 1136.41 Q165.626 1134.67 162.524 1134.67 Q160.325 1134.67 157.871 1135.43 Q155.44 1136.2 152.663 1137.75 L152.663 1133.03 Q155.487 1131.89 157.94 1131.31 Q160.394 1130.73 162.431 1130.73 Q167.802 1130.73 170.996 1133.42 Q174.19 1136.1 174.19 1140.6 Q174.19 1142.72 173.38 1144.65 Q172.593 1146.54 170.487 1149.14 Q169.908 1149.81 166.806 1153.03 Q163.704 1156.22 158.056 1161.98 Z" fill="#000000" fill-rule="nonzero" fill-opacity="1" /><path clip-path="url(#clip600)" d="M194.19 1134.44 Q190.579 1134.44 188.75 1138 Q186.945 1141.54 186.945 1148.67 Q186.945 1155.78 188.75 1159.34 Q190.579 1162.89 194.19 1162.89 Q197.825 1162.89 199.63 1159.34 Q201.459 1155.78 201.459 1148.67 Q201.459 1141.54 199.63 1138 Q197.825 1134.44 194.19 1134.44 M194.19 1130.73 Q200 1130.73 203.056 1135.34 Q206.135 1139.92 206.135 1148.67 Q206.135 1157.4 203.056 1162.01 Q200 1166.59 194.19 1166.59 Q188.38 1166.59 185.301 1162.01 Q182.246 1157.4 182.246 1148.67 Q182.246 1139.92 185.301 1135.34 Q188.38 1130.73 194.19 1130.73 Z" fill="#000000" fill-rule="nonzero" fill-opacity="1" /><path clip-path="url(#clip600)" d="M114.26 907.757 L143.936 907.757 L143.936 911.693 L114.26 911.693 L114.26 907.757 Z" fill="#000000" fill-rule="nonzero" fill-opacity="1" /><path clip-path="url(#clip600)" d="M154.839 920.651 L162.477 920.651 L162.477 894.285 L154.167 895.952 L154.167 891.693 L162.431 890.026 L167.107 890.026 L167.107 920.651 L174.746 920.651 L174.746 924.586 L154.839 924.586 L154.839 920.651 Z" fill="#000000" fill-rule="nonzero" fill-opacity="1" /><path clip-path="url(#clip600)" d="M194.19 893.105 Q190.579 893.105 188.75 896.67 Q186.945 900.211 186.945 907.341 Q186.945 914.447 188.75 918.012 Q190.579 921.554 194.19 921.554 Q197.825 921.554 199.63 918.012 Q201.459 914.447 201.459 907.341 Q201.459 900.211 199.63 896.67 Q197.825 893.105 194.19 893.105 M194.19 889.401 Q200 889.401 203.056 894.008 Q206.135 898.591 206.135 907.341 Q206.135 916.068 203.056 920.674 Q200 925.257 194.19 925.257 Q188.38 925.257 185.301 920.674 Q182.246 916.068 182.246 907.341 Q182.246 898.591 185.301 894.008 Q188.38 889.401 194.19 889.401 Z" fill="#000000" fill-rule="nonzero" fill-opacity="1" /><path clip-path="url(#clip600)" d="M194.19 651.772 Q190.579 651.772 188.75 655.337 Q186.945 658.878 186.945 666.008 Q186.945 673.114 188.75 676.679 Q190.579 680.221 194.19 680.221 Q197.825 680.221 199.63 676.679 Q201.459 673.114 201.459 666.008 Q201.459 658.878 199.63 655.337 Q197.825 651.772 194.19 651.772 M194.19 648.068 Q200 648.068 203.056 652.675 Q206.135 657.258 206.135 666.008 Q206.135 674.735 203.056 679.341 Q200 683.924 194.19 683.924 Q188.38 683.924 185.301 679.341 Q182.246 674.735 182.246 666.008 Q182.246 657.258 185.301 652.675 Q188.38 648.068 194.19 648.068 Z" fill="#000000" fill-rule="nonzero" fill-opacity="1" /><path clip-path="url(#clip600)" d="M154.839 437.985 L162.477 437.985 L162.477 411.619 L154.167 413.286 L154.167 409.027 L162.431 407.36 L167.107 407.36 L167.107 437.985 L174.746 437.985 L174.746 441.92 L154.839 441.92 L154.839 437.985 Z" fill="#000000" fill-rule="nonzero" fill-opacity="1" /><path clip-path="url(#clip600)" d="M194.19 410.439 Q190.579 410.439 188.75 414.004 Q186.945 417.545 186.945 424.675 Q186.945 431.781 188.75 435.346 Q190.579 438.888 194.19 438.888 Q197.825 438.888 199.63 435.346 Q201.459 431.781 201.459 424.675 Q201.459 417.545 199.63 414.004 Q197.825 410.439 194.19 410.439 M194.19 406.735 Q200 406.735 203.056 411.342 Q206.135 415.925 206.135 424.675 Q206.135 433.402 203.056 438.008 Q200 442.591 194.19 442.591 Q188.38 442.591 185.301 438.008 Q182.246 433.402 182.246 424.675 Q182.246 415.925 185.301 411.342 Q188.38 406.735 194.19 406.735 Z" fill="#000000" fill-rule="nonzero" fill-opacity="1" /><path clip-path="url(#clip600)" d="M158.056 196.652 L174.376 196.652 L174.376 200.587 L152.431 200.587 L152.431 196.652 Q155.093 193.897 159.677 189.268 Q164.283 184.615 165.464 183.273 Q167.709 180.749 168.589 179.013 Q169.491 177.254 169.491 175.564 Q169.491 172.81 167.547 171.073 Q165.626 169.337 162.524 169.337 Q160.325 169.337 157.871 170.101 Q155.44 170.865 152.663 172.416 L152.663 167.694 Q155.487 166.56 157.94 165.981 Q160.394 165.402 162.431 165.402 Q167.802 165.402 170.996 168.087 Q174.19 170.773 174.19 175.263 Q174.19 177.393 173.38 179.314 Q172.593 181.212 170.487 183.805 Q169.908 184.476 166.806 187.694 Q163.704 190.888 158.056 196.652 Z" fill="#000000" fill-rule="nonzero" fill-opacity="1" /><path clip-path="url(#clip600)" d="M194.19 169.106 Q190.579 169.106 188.75 172.671 Q186.945 176.212 186.945 183.342 Q186.945 190.448 188.75 194.013 Q190.579 197.555 194.19 197.555 Q197.825 197.555 199.63 194.013 Q201.459 190.448 201.459 183.342 Q201.459 176.212 199.63 172.671 Q197.825 169.106 194.19 169.106 M194.19 165.402 Q200 165.402 203.056 170.009 Q206.135 174.592 206.135 183.342 Q206.135 192.069 203.056 196.675 Q200 201.259 194.19 201.259 Q188.38 201.259 185.301 196.675 Q182.246 192.069 182.246 183.342 Q182.246 174.592 185.301 170.009 Q188.38 165.402 194.19 165.402 Z" fill="#000000" fill-rule="nonzero" fill-opacity="1" /><path clip-path="url(#clip600)" d="M33.7671 777.715 L14.479 777.715 L14.479 771.859 L64.0042 771.859 L64.0042 777.715 L58.657 777.715 Q61.8398 779.561 63.3994 782.394 Q64.9272 785.195 64.9272 789.142 Q64.9272 795.603 59.771 799.677 Q54.6147 803.719 46.212 803.719 Q37.8093 803.719 32.6531 799.677 Q27.4968 795.603 27.4968 789.142 Q27.4968 785.195 29.0564 782.394 Q30.5842 779.561 33.7671 777.715 M46.212 797.672 Q52.6732 797.672 56.3653 795.03 Q60.0256 792.357 60.0256 787.71 Q60.0256 783.063 56.3653 780.389 Q52.6732 777.715 46.212 777.715 Q39.7508 777.715 36.0905 780.389 Q32.3984 783.063 32.3984 787.71 Q32.3984 792.357 36.0905 795.03 Q39.7508 797.672 46.212 797.672 Z" fill="#000000" fill-rule="nonzero" fill-opacity="1" /><path clip-path="url(#clip600)" d="M16.4842 759.541 L16.4842 753.112 L58.5933 753.112 L58.5933 729.973 L64.0042 729.973 L64.0042 759.541 L16.4842 759.541 Z" fill="#000000" fill-rule="nonzero" fill-opacity="1" /><polyline clip-path="url(#clip602)" style="stroke:#009af9; stroke-linecap:round; stroke-linejoin:round; stroke-width:4; stroke-opacity:1; fill:none" points="301.869,1445.72 311.825,1441.43 321.781,1437.15 331.737,1432.87 341.692,1428.59 351.648,1424.31 361.604,1420.03 371.56,1415.75 381.515,1411.47 391.471,1407.18 401.427,1402.9 411.383,1398.62 421.338,1394.34 431.294,1390.06 441.25,1385.78 451.206,1381.5 461.161,1377.22 471.117,1372.93 481.073,1368.65 491.029,1364.37 500.984,1360.09 510.94,1355.81 520.896,1351.53 530.852,1347.25 540.807,1342.96 550.763,1338.68 560.719,1334.4 570.675,1330.12 580.631,1325.84 590.586,1321.56 600.542,1317.28 610.498,1313 620.454,1308.71 630.409,1304.43 640.365,1300.15 650.321,1295.87 660.277,1291.59 670.232,1287.31 680.188,1283.03 690.144,1278.75 700.1,1274.46 710.055,1270.18 720.011,1265.9 729.967,1261.62 739.923,1257.34 749.878,1253.06 759.834,1248.78 769.79,1244.5 779.746,1240.21 789.701,1235.93 799.657,1231.65 809.613,1227.37 819.569,1223.09 829.525,1218.81 839.48,1214.53 849.436,1210.24 859.392,1205.96 869.348,1201.68 879.303,1197.4 889.259,1193.12 899.215,1188.84 909.171,1184.56 919.126,1180.28 929.082,1175.99 939.038,1171.71 948.994,1167.43 958.949,1163.15 968.905,1158.87 978.861,1154.59 988.817,1150.31 998.772,1146.03 1008.73,1141.74 1018.68,1137.46 1028.64,1133.18 1038.6,1128.9 1048.55,1124.62 1058.51,1120.34 1068.46,1116.06 1078.42,1111.78 1088.37,1107.49 1098.33,1103.21 1108.29,1098.93 1118.24,1094.65 1128.2,1090.37 1138.15,1086.09 1148.11,1081.81 1158.06,1077.52 1168.02,1073.24 1177.98,1068.96 1187.93,1064.68 1197.89,1060.4 1207.84,1056.12 1217.8,1051.84 1227.75,1047.56 1237.71,1043.27 1247.67,1038.99 1257.62,1034.71 1267.58,1030.43 1277.53,1026.15 1287.49,1021.87 1297.45,1017.59 1307.4,1013.31 1317.36,1009.02 1327.31,1004.74 1337.27,1000.46 1347.22,996.18 1357.18,991.899 1367.14,987.618 1377.09,983.336 1387.05,979.055 1397,974.774 1406.96,970.493 1416.91,966.211 1426.87,961.93 1436.83,957.649 1446.78,953.367 1456.74,949.086 1466.69,944.805 1476.65,940.524 1486.6,936.242 1496.56,931.961 1506.52,927.68 1516.47,923.398 1526.43,919.117 1536.38,914.836 1546.34,910.555 1556.3,906.273 1566.25,901.992 1576.21,897.711 1586.16,893.429 1596.12,889.148 1606.07,884.867 1616.03,880.585 1625.99,876.304 1635.94,872.023 1645.9,867.742 1655.85,863.46 1665.81,859.179 1675.76,854.898 1685.72,850.616 1695.68,846.335 1705.63,842.054 1715.59,837.773 1725.54,833.491 1735.5,829.21 1745.45,824.929 1755.41,820.647 1765.37,816.366 1775.32,812.085 1785.28,807.804 1795.23,803.522 1805.19,799.241 1815.14,794.96 1825.1,790.678 1835.06,786.397 1845.01,782.116 1854.97,777.835 1864.92,773.553 1874.88,769.272 1884.84,764.991 1894.79,760.709 1904.75,756.428 1914.7,752.147 1924.66,747.866 1934.61,743.584 1944.57,739.303 1954.53,735.022 1964.48,730.74 1974.44,726.459 1984.39,722.178 1994.35,717.897 2004.3,713.615 2014.26,709.334 2024.22,705.053 2034.17,700.771 2044.13,696.49 2054.08,692.209 2064.04,687.927 2073.99,683.646 2083.95,679.365 2093.91,675.084 2103.86,670.802 2113.82,666.521 2123.77,662.24 2133.73,657.958 2143.68,653.677 2153.64,649.396 2163.6,645.115 2173.55,640.833 2183.51,636.552 2193.46,632.271 2203.42,627.989 2213.38,623.708 2223.33,619.427 2233.29,615.146 2243.24,610.864 2253.2,606.583 2263.15,602.302 2273.11,598.02 2283.07,593.739 2293.02,589.458 "/>
<polyline clip-path="url(#clip602)" style="stroke:#e26f46; stroke-linecap:round; stroke-linejoin:round; stroke-width:4; stroke-opacity:1; fill:none" points="301.869,1053.31 311.825,1048.48 321.781,1043.65 331.737,1038.83 341.692,1034 351.648,1029.17 361.604,1024.35 371.56,1019.52 381.515,1014.69 391.471,1009.87 401.427,1005.04 411.383,1000.21 421.338,995.388 431.294,990.561 441.25,985.735 451.206,980.908 461.161,976.082 471.117,971.255 481.073,966.428 491.029,961.602 500.984,956.775 510.94,951.948 520.896,947.122 530.852,942.295 540.807,937.468 550.763,932.642 560.719,927.815 570.675,922.988 580.631,918.162 590.586,913.335 600.542,908.508 610.498,903.682 620.454,898.855 630.409,894.028 640.365,889.202 650.321,884.375 660.277,879.548 670.232,874.722 680.188,869.895 690.144,865.068 700.1,860.242 710.055,855.415 720.011,850.588 729.967,845.762 739.923,840.935 749.878,836.108 759.834,831.282 769.79,826.455 779.746,821.628 789.701,816.802 799.657,811.975 809.613,807.148 819.569,802.322 829.525,797.495 839.48,792.668 849.436,787.842 859.392,783.015 869.348,778.189 879.303,773.362 889.259,768.535 899.215,763.709 909.171,758.882 919.126,754.055 929.082,749.229 939.038,744.402 948.994,739.575 958.949,734.749 968.905,729.922 978.861,725.095 988.817,720.269 998.772,715.442 1008.73,710.615 1018.68,705.789 1028.64,700.962 1038.6,696.135 1048.55,691.309 1058.51,686.482 1068.46,681.655 1078.42,676.829 1088.37,672.002 1098.33,667.175 1108.29,662.349 1118.24,657.522 1128.2,652.695 1138.15,647.869 1148.11,643.042 1158.06,638.215 1168.02,633.389 1177.98,628.562 1187.93,623.735 1197.89,618.909 1207.84,614.082 1217.8,609.255 1227.75,604.429 1237.71,599.602 1247.67,594.775 1257.62,589.949 1267.58,585.122 1277.53,580.295 1287.49,575.469 1297.45,570.642 1307.4,565.816 1317.36,560.989 1327.31,556.162 1337.27,551.336 1347.22,546.509 1357.18,541.682 1367.14,536.856 1377.09,532.029 1387.05,527.202 1397,522.376 1406.96,517.549 1416.91,512.722 1426.87,507.896 1436.83,503.069 1446.78,498.242 1456.74,493.416 1466.69,488.589 1476.65,483.762 1486.6,478.936 1496.56,474.109 1506.52,469.282 1516.47,464.456 1526.43,459.629 1536.38,454.802 1546.34,449.976 1556.3,445.149 1566.25,440.322 1576.21,435.496 1586.16,430.669 1596.12,425.842 1606.07,421.016 1616.03,416.189 1625.99,411.362 1635.94,406.536 1645.9,401.709 1655.85,396.882 1665.81,392.056 1675.76,387.229 1685.72,382.402 1695.68,377.576 1705.63,372.749 1715.59,367.922 1725.54,363.096 1735.5,358.269 1745.45,353.443 1755.41,348.616 1765.37,343.789 1775.32,338.963 1785.28,334.136 1795.23,329.309 1805.19,324.483 1815.14,319.656 1825.1,314.829 1835.06,310.003 1845.01,305.176 1854.97,300.349 1864.92,295.523 1874.88,290.696 1884.84,285.869 1894.79,281.043 1904.75,276.216 1914.7,271.389 1924.66,266.563 1934.61,261.736 1944.57,256.909 1954.53,252.083 1964.48,247.256 1974.44,242.429 1984.39,237.603 1994.35,232.776 2004.3,227.949 2014.26,223.123 2024.22,218.296 2034.17,213.469 2044.13,208.643 2054.08,203.816 2064.04,198.989 2073.99,194.163 2083.95,189.336 2093.91,184.509 2103.86,179.683 2113.82,174.856 2123.77,170.029 2133.73,165.203 2143.68,160.376 2153.64,155.55 2163.6,150.723 2173.55,145.896 2183.51,141.07 2193.46,136.243 2203.42,131.416 2213.38,126.59 2223.33,121.763 2233.29,116.936 2243.24,112.11 2253.2,107.283 2263.15,102.456 2273.11,97.6296 2283.07,92.8029 2293.02,87.9763 "/>
<polyline clip-path="url(#clip602)" style="stroke:#3da44d; stroke-linecap:round; stroke-linejoin:round; stroke-width:4; stroke-opacity:1; fill:none" points="-1868.49,665.973 4463.38,665.973 "/>
<polyline clip-path="url(#clip602)" style="stroke:#c271d2; stroke-linecap:round; stroke-linejoin:round; stroke-width:4; stroke-opacity:1; fill:none" points="1098.33,2925.65 1098.33,-1391.96 "/>
<polyline clip-path="url(#clip602)" style="stroke:#ac8d18; stroke-linecap:round; stroke-linejoin:round; stroke-width:4; stroke-opacity:1; fill:none" points="2093.91,2925.65 2093.91,-1391.96 "/>
<path clip-path="url(#clip600)" d="M312.489 690.77 L713.726 690.77 L713.726 95.2176 L312.489 95.2176  Z" fill="#ffffff" fill-rule="evenodd" fill-opacity="1"/>
<polyline clip-path="url(#clip600)" style="stroke:#000000; stroke-linecap:round; stroke-linejoin:round; stroke-width:4; stroke-opacity:1; fill:none" points="312.489,690.77 713.726,690.77 713.726,95.2176 312.489,95.2176 312.489,690.77 "/>
<polyline clip-path="url(#clip600)" style="stroke:#009af9; stroke-linecap:round; stroke-linejoin:round; stroke-width:4; stroke-opacity:1; fill:none" points="335.94,194.476 476.648,194.476 "/>
<path clip-path="url(#clip600)" d="M533.176 145.032 L526.267 172.764 Q525.986 174.006 525.986 175.06 Q525.986 177.261 527.414 177.261 Q528.117 177.261 528.679 176.816 Q529.241 176.371 529.686 175.434 Q530.131 174.497 530.413 173.631 Q530.694 172.741 531.068 171.335 Q531.185 170.773 531.279 170.633 Q531.396 170.469 531.724 170.469 Q532.31 170.469 532.31 170.937 Q531.677 173.959 530.858 175.692 Q529.546 178.339 527.321 178.339 Q525.634 178.339 524.44 177.308 Q523.245 176.278 522.964 174.732 Q519.896 178.339 516.71 178.339 Q513.9 178.339 512.12 176.207 Q510.339 174.052 510.339 170.656 Q510.339 167.237 512.026 163.957 Q513.736 160.678 516.429 158.64 Q519.123 156.603 521.887 156.603 Q524.815 156.603 526.314 159.671 L529.195 148.288 L529.335 147.351 Q529.335 147.07 529.218 146.929 Q529.124 146.765 528.562 146.648 Q528.023 146.531 526.946 146.531 Q526.501 146.531 526.29 146.508 Q526.103 146.484 525.939 146.367 Q525.775 146.227 525.775 145.946 Q525.775 145.126 526.454 145.032 Q530.951 144.517 532.544 144.517 Q532.825 144.517 532.989 144.657 Q533.153 144.774 533.153 144.915 L533.176 145.032 M525.728 161.873 Q525.728 161.662 525.564 161.076 Q525.4 160.491 525.025 159.671 Q524.651 158.851 523.831 158.266 Q523.034 157.657 521.957 157.657 Q520.505 157.657 518.982 158.898 Q517.483 160.14 516.382 162.248 Q515.539 163.934 514.626 167.471 Q513.736 171.008 513.736 172.764 Q513.736 173.842 513.97 174.802 Q514.228 175.739 514.954 176.512 Q515.68 177.261 516.804 177.261 Q519.545 177.261 522.238 173.865 Q522.753 173.28 522.87 173.045 Q523.011 172.788 523.198 172.085 L525.587 162.693 Q525.728 161.99 525.728 161.873 Z" fill="#000000" fill-rule="nonzero" fill-opacity="1" /><path clip-path="url(#clip600)" d="M563.991 165.948 Q563.991 166.089 563.803 166.628 L560.009 176.98 Q559.798 177.589 559.587 177.706 Q559.377 177.8 558.51 177.8 L536.305 177.8 Q535.767 177.8 535.556 177.777 Q535.345 177.753 535.181 177.636 Q535.017 177.519 535.017 177.261 Q535.017 176.793 535.181 176.582 Q535.369 176.371 535.579 176.348 Q535.79 176.324 536.305 176.324 Q537.477 176.324 538.179 176.254 Q538.882 176.184 539.327 176.09 Q539.795 175.973 540.03 175.645 Q540.287 175.317 540.404 175.036 Q540.521 174.732 540.685 174.052 L547.103 148.288 Q547.291 147.515 547.291 147.398 Q547.291 146.953 547.01 146.836 Q546.752 146.695 546.002 146.625 L544.175 146.531 Q543.613 146.531 543.379 146.508 Q543.168 146.484 543.004 146.367 Q542.84 146.25 542.84 145.992 Q542.84 145.547 543.004 145.337 Q543.192 145.102 543.332 145.079 Q543.496 145.032 543.754 145.032 L550.125 145.173 L557.222 145.032 Q557.995 145.032 557.995 145.618 Q557.995 146.273 557.667 146.414 Q557.339 146.531 556.168 146.531 Q553.919 146.531 552.889 146.765 Q551.881 147 551.6 147.398 Q551.343 147.772 551.085 148.78 L544.597 174.685 Q544.363 175.551 544.363 175.786 Q544.363 176.043 544.48 176.137 Q544.62 176.207 544.995 176.254 Q545.417 176.324 546.049 176.324 L550.546 176.324 Q551.905 176.324 553.099 176.114 Q554.294 175.903 555.207 175.598 Q556.144 175.294 556.987 174.732 Q557.831 174.17 558.416 173.678 Q559.025 173.162 559.611 172.366 Q560.22 171.546 560.571 170.984 Q560.946 170.399 561.367 169.462 Q561.789 168.501 562 167.963 Q562.234 167.4 562.585 166.44 Q562.796 165.948 562.867 165.808 Q562.937 165.667 563.054 165.55 Q563.194 165.433 563.405 165.433 Q563.686 165.433 563.827 165.597 Q563.991 165.761 563.991 165.948 Z" fill="#000000" fill-rule="nonzero" fill-opacity="1" /><path clip-path="url(#clip600)" d="M510.339 191.131 L568.825 191.131 L568.825 188.571 L510.339 188.571  Z" fill="#000000" fill-rule="evenodd" fill-opacity="1"/>
<path clip-path="url(#clip600)" d="M535.176 202.135 L528.267 229.867 Q527.986 231.108 527.986 232.162 Q527.986 234.364 529.414 234.364 Q530.117 234.364 530.679 233.919 Q531.241 233.474 531.686 232.537 Q532.131 231.6 532.413 230.733 Q532.694 229.843 533.068 228.438 Q533.185 227.876 533.279 227.735 Q533.396 227.571 533.724 227.571 Q534.31 227.571 534.31 228.04 Q533.677 231.061 532.858 232.795 Q531.546 235.441 529.321 235.441 Q527.634 235.441 526.44 234.411 Q525.245 233.38 524.964 231.834 Q521.896 235.441 518.71 235.441 Q515.9 235.441 514.12 233.31 Q512.339 231.155 512.339 227.759 Q512.339 224.339 514.026 221.06 Q515.736 217.781 518.429 215.743 Q521.123 213.705 523.887 213.705 Q526.815 213.705 528.314 216.774 L531.195 205.39 L531.335 204.453 Q531.335 204.172 531.218 204.032 Q531.124 203.868 530.562 203.751 Q530.023 203.634 528.946 203.634 Q528.501 203.634 528.29 203.61 Q528.103 203.587 527.939 203.47 Q527.775 203.329 527.775 203.048 Q527.775 202.228 528.454 202.135 Q532.951 201.619 534.544 201.619 Q534.825 201.619 534.989 201.76 Q535.153 201.877 535.153 202.017 L535.176 202.135 M527.728 218.975 Q527.728 218.764 527.564 218.179 Q527.4 217.593 527.025 216.774 Q526.651 215.954 525.831 215.368 Q525.034 214.759 523.957 214.759 Q522.505 214.759 520.982 216.001 Q519.483 217.242 518.382 219.35 Q517.539 221.036 516.626 224.573 Q515.736 228.11 515.736 229.867 Q515.736 230.944 515.97 231.904 Q516.228 232.841 516.954 233.614 Q517.68 234.364 518.804 234.364 Q521.545 234.364 524.238 230.968 Q524.753 230.382 524.87 230.148 Q525.011 229.89 525.198 229.187 L527.587 219.795 Q527.728 219.092 527.728 218.975 Z" fill="#000000" fill-rule="nonzero" fill-opacity="1" /><path clip-path="url(#clip600)" d="M562.173 207.358 Q562.173 207.967 561.916 209.138 Q561.096 212.44 558.027 214.712 Q557.512 215.134 556.599 215.673 Q557.7 216.399 558.66 217.734 Q560.089 219.936 560.089 222.91 Q560.089 224.292 559.714 225.979 Q558.66 229.89 554.959 232.701 Q551.235 235.441 546.808 235.441 Q544.419 235.441 542.779 234.176 Q541.163 232.888 540.531 230.733 L537.275 243.873 Q537.205 244.201 536.783 244.201 L536.549 244.201 Q536.057 244.201 536.057 243.639 L543.459 214.127 Q543.951 212.136 544.747 210.262 Q545.543 208.388 546.644 206.702 Q547.768 205.016 549.057 203.774 Q550.345 202.509 551.938 201.783 Q553.53 201.034 555.217 201.034 Q558.754 201.034 560.768 203.446 Q562.173 205.156 562.173 207.358 M559.48 206.515 Q559.48 205.062 558.894 204.055 Q557.7 202.135 555.17 202.135 Q553.647 202.135 552.195 202.837 Q550.767 203.516 549.619 204.688 Q548.471 205.859 547.487 207.451 Q546.504 209.044 545.778 210.777 Q545.075 212.487 544.606 214.361 L541.725 225.979 Q541.444 227.22 541.444 228.321 Q541.444 230.944 542.897 232.654 Q544.349 234.364 546.855 234.364 Q550.181 234.364 553.038 231.881 Q555.521 229.656 556.552 225.744 Q557.137 223.285 557.137 221.575 Q557.137 219.701 556.458 218.249 Q555.966 217.078 555.006 216.375 Q553.226 217.008 551.422 217.008 Q550.556 217.008 550.087 216.984 Q549.642 216.961 548.986 216.867 Q548.354 216.774 548.05 216.516 Q547.768 216.258 547.768 215.86 Q547.768 215.626 547.815 215.532 Q547.909 215.157 548.213 214.9 Q548.518 214.642 548.869 214.525 Q549.221 214.384 549.806 214.314 Q550.415 214.244 550.813 214.244 Q551.212 214.221 551.891 214.221 Q553.484 214.221 555.1 214.853 Q555.709 214.525 556.364 213.939 Q558.449 211.995 559.152 208.904 Q559.48 207.756 559.48 206.515 M553.577 215.579 Q552.593 215.321 551.844 215.321 Q549.104 215.321 548.963 215.766 Q548.963 215.813 549.057 215.86 Q549.15 215.884 549.361 215.907 Q549.595 215.907 549.783 215.93 Q549.994 215.954 550.345 215.954 Q550.696 215.954 550.884 215.954 Q551.094 215.954 551.469 215.954 Q552.406 215.954 553.577 215.579 Z" fill="#000000" fill-rule="nonzero" fill-opacity="1" /><polyline clip-path="url(#clip600)" style="stroke:#e26f46; stroke-linecap:round; stroke-linejoin:round; stroke-width:4; stroke-opacity:1; fill:none" points="335.94,293.735 476.648,293.735 "/>
<path clip-path="url(#clip600)" d="M533.176 248.916 L526.267 276.648 Q525.986 277.889 525.986 278.943 Q525.986 281.145 527.414 281.145 Q528.117 281.145 528.679 280.7 Q529.241 280.255 529.686 279.318 Q530.131 278.381 530.413 277.515 Q530.694 276.625 531.068 275.219 Q531.185 274.657 531.279 274.517 Q531.396 274.353 531.724 274.353 Q532.31 274.353 532.31 274.821 Q531.677 277.843 530.858 279.576 Q529.546 282.223 527.321 282.223 Q525.634 282.223 524.44 281.192 Q523.245 280.161 522.964 278.615 Q519.896 282.223 516.71 282.223 Q513.9 282.223 512.12 280.091 Q510.339 277.936 510.339 274.54 Q510.339 271.12 512.026 267.841 Q513.736 264.562 516.429 262.524 Q519.123 260.486 521.887 260.486 Q524.815 260.486 526.314 263.555 L529.195 252.172 L529.335 251.235 Q529.335 250.954 529.218 250.813 Q529.124 250.649 528.562 250.532 Q528.023 250.415 526.946 250.415 Q526.501 250.415 526.29 250.391 Q526.103 250.368 525.939 250.251 Q525.775 250.11 525.775 249.829 Q525.775 249.009 526.454 248.916 Q530.951 248.401 532.544 248.401 Q532.825 248.401 532.989 248.541 Q533.153 248.658 533.153 248.799 L533.176 248.916 M525.728 265.757 Q525.728 265.546 525.564 264.96 Q525.4 264.375 525.025 263.555 Q524.651 262.735 523.831 262.149 Q523.034 261.541 521.957 261.541 Q520.505 261.541 518.982 262.782 Q517.483 264.023 516.382 266.131 Q515.539 267.818 514.626 271.355 Q513.736 274.891 513.736 276.648 Q513.736 277.725 513.97 278.686 Q514.228 279.623 514.954 280.396 Q515.68 281.145 516.804 281.145 Q519.545 281.145 522.238 277.749 Q522.753 277.163 522.87 276.929 Q523.011 276.671 523.198 275.969 L525.587 266.576 Q525.728 265.874 525.728 265.757 Z" fill="#000000" fill-rule="nonzero" fill-opacity="1" /><path clip-path="url(#clip600)" d="M563.991 269.832 Q563.991 269.973 563.803 270.511 L560.009 280.864 Q559.798 281.473 559.587 281.59 Q559.377 281.684 558.51 281.684 L536.305 281.684 Q535.767 281.684 535.556 281.66 Q535.345 281.637 535.181 281.52 Q535.017 281.403 535.017 281.145 Q535.017 280.677 535.181 280.466 Q535.369 280.255 535.579 280.232 Q535.79 280.208 536.305 280.208 Q537.477 280.208 538.179 280.138 Q538.882 280.068 539.327 279.974 Q539.795 279.857 540.03 279.529 Q540.287 279.201 540.404 278.92 Q540.521 278.615 540.685 277.936 L547.103 252.172 Q547.291 251.399 547.291 251.281 Q547.291 250.836 547.01 250.719 Q546.752 250.579 546.002 250.509 L544.175 250.415 Q543.613 250.415 543.379 250.391 Q543.168 250.368 543.004 250.251 Q542.84 250.134 542.84 249.876 Q542.84 249.431 543.004 249.22 Q543.192 248.986 543.332 248.963 Q543.496 248.916 543.754 248.916 L550.125 249.056 L557.222 248.916 Q557.995 248.916 557.995 249.501 Q557.995 250.157 557.667 250.298 Q557.339 250.415 556.168 250.415 Q553.919 250.415 552.889 250.649 Q551.881 250.883 551.6 251.281 Q551.343 251.656 551.085 252.663 L544.597 278.569 Q544.363 279.435 544.363 279.669 Q544.363 279.927 544.48 280.021 Q544.62 280.091 544.995 280.138 Q545.417 280.208 546.049 280.208 L550.546 280.208 Q551.905 280.208 553.099 279.997 Q554.294 279.787 555.207 279.482 Q556.144 279.178 556.987 278.615 Q557.831 278.053 558.416 277.561 Q559.025 277.046 559.611 276.25 Q560.22 275.43 560.571 274.868 Q560.946 274.282 561.367 273.345 Q561.789 272.385 562 271.846 Q562.234 271.284 562.585 270.324 Q562.796 269.832 562.867 269.692 Q562.937 269.551 563.054 269.434 Q563.194 269.317 563.405 269.317 Q563.686 269.317 563.827 269.481 Q563.991 269.645 563.991 269.832 Z" fill="#000000" fill-rule="nonzero" fill-opacity="1" /><path clip-path="url(#clip600)" d="M510.339 295.015 L568.825 295.015 L568.825 292.455 L510.339 292.455  Z" fill="#000000" fill-rule="evenodd" fill-opacity="1"/>
<path clip-path="url(#clip600)" d="M539.176 305.44 L532.267 333.172 Q531.986 334.414 531.986 335.468 Q531.986 337.669 533.414 337.669 Q534.117 337.669 534.679 337.224 Q535.241 336.779 535.686 335.843 Q536.131 334.906 536.413 334.039 Q536.694 333.149 537.068 331.744 Q537.185 331.181 537.279 331.041 Q537.396 330.877 537.724 330.877 Q538.31 330.877 538.31 331.345 Q537.677 334.367 536.858 336.1 Q535.546 338.747 533.321 338.747 Q531.634 338.747 530.44 337.716 Q529.245 336.686 528.964 335.14 Q525.896 338.747 522.71 338.747 Q519.9 338.747 518.12 336.615 Q516.339 334.461 516.339 331.064 Q516.339 327.645 518.026 324.366 Q519.736 321.086 522.429 319.049 Q525.123 317.011 527.887 317.011 Q530.815 317.011 532.314 320.079 L535.195 308.696 L535.335 307.759 Q535.335 307.478 535.218 307.337 Q535.124 307.173 534.562 307.056 Q534.023 306.939 532.946 306.939 Q532.501 306.939 532.29 306.916 Q532.103 306.892 531.939 306.775 Q531.775 306.635 531.775 306.354 Q531.775 305.534 532.454 305.44 Q536.951 304.925 538.544 304.925 Q538.825 304.925 538.989 305.065 Q539.153 305.183 539.153 305.323 L539.176 305.44 M531.728 322.281 Q531.728 322.07 531.564 321.485 Q531.4 320.899 531.025 320.079 Q530.651 319.259 529.831 318.674 Q529.034 318.065 527.957 318.065 Q526.505 318.065 524.982 319.306 Q523.483 320.548 522.382 322.656 Q521.539 324.342 520.626 327.879 Q519.736 331.416 519.736 333.172 Q519.736 334.25 519.97 335.21 Q520.228 336.147 520.954 336.92 Q521.68 337.669 522.804 337.669 Q525.545 337.669 528.238 334.273 Q528.753 333.688 528.87 333.453 Q529.011 333.196 529.198 332.493 L531.587 323.101 Q531.728 322.398 531.728 322.281 Z" fill="#000000" fill-rule="nonzero" fill-opacity="1" /><path clip-path="url(#clip600)" d="M558.87 324.67 Q558.87 328.043 557.16 331.345 Q555.473 334.625 552.756 336.686 Q550.063 338.747 547.299 338.747 Q544.605 338.747 542.896 336.686 Q541.209 334.601 541.209 331.205 Q541.209 330.01 541.35 329.167 Q541.49 328.324 541.982 326.356 L545.917 310.71 Q546.596 307.782 546.596 307.759 Q546.596 307.478 546.479 307.337 Q546.386 307.173 545.823 307.056 Q545.261 306.939 544.184 306.939 Q543.739 306.939 543.528 306.916 Q543.341 306.892 543.177 306.775 Q543.036 306.635 543.036 306.354 Q543.036 305.955 543.2 305.745 Q543.388 305.51 543.528 305.464 Q543.669 305.417 543.95 305.393 Q544.348 305.37 545.683 305.253 Q547.018 305.112 548.166 305.019 Q549.313 304.925 549.805 304.925 Q550.086 304.925 550.227 305.065 Q550.391 305.183 550.391 305.323 L550.414 305.44 L546.877 319.892 Q549.665 317.011 552.499 317.011 Q555.333 317.011 557.09 319.189 Q558.87 321.367 558.87 324.67 M555.403 322.562 Q555.403 320.337 554.56 319.213 Q553.74 318.065 552.382 318.065 Q551.234 318.065 549.735 318.932 Q548.236 319.798 546.643 321.906 Q546.339 322.304 546.222 322.539 Q546.128 322.773 545.917 323.569 L544.863 327.996 Q544.09 331.017 544.09 332.844 Q544.09 335.327 545.004 336.498 Q545.917 337.669 547.299 337.669 Q548.751 337.669 550.274 336.381 Q551.796 335.093 552.967 332.751 Q553.693 331.205 554.537 327.879 Q555.403 324.529 555.403 322.562 Z" fill="#000000" fill-rule="nonzero" fill-opacity="1" /><polyline clip-path="url(#clip600)" style="stroke:#3da44d; stroke-linecap:round; stroke-linejoin:round; stroke-width:4; stroke-opacity:1; fill:none" points="335.94,392.994 476.648,392.994 "/>
<path clip-path="url(#clip600)" d="M534.976 376.514 Q534.976 376.819 534.905 377.006 Q534.858 377.194 534.671 377.287 Q534.507 377.358 534.39 377.381 Q534.296 377.405 534.015 377.428 Q532.867 377.522 531.907 377.826 Q530.947 378.107 530.127 378.669 Q529.331 379.231 528.886 379.606 Q528.464 379.981 527.715 380.731 L527.059 381.41 L515.16 395.065 Q514.739 395.534 514.481 396.564 L512.794 403.333 Q512.139 406.144 512.139 406.355 Q512.139 406.776 512.373 406.917 Q512.63 407.034 513.427 407.104 L515.254 407.221 Q516.331 407.221 516.495 407.409 Q516.589 407.526 516.589 407.737 Q516.589 408.182 516.402 408.416 Q516.238 408.627 516.074 408.674 Q515.933 408.697 515.675 408.697 L509.539 408.556 L503.496 408.697 Q502.816 408.697 502.816 408.158 Q502.816 407.807 502.863 407.619 Q502.934 407.409 503.144 407.338 Q503.355 407.245 503.519 407.245 Q503.683 407.221 504.128 407.221 Q505.206 407.198 505.744 407.198 Q506.306 407.174 506.845 407.034 Q507.384 406.893 507.571 406.8 Q507.782 406.683 508.016 406.284 Q508.274 405.863 508.344 405.535 Q508.438 405.207 508.625 404.387 Q508.813 403.661 509.796 399.703 Q510.78 395.744 510.78 395.651 Q510.78 395.393 510.593 394.831 L504.69 379.044 Q504.433 378.341 504.222 378.06 Q504.011 377.779 503.308 377.615 Q502.606 377.428 501.2 377.428 Q500.802 377.428 500.615 377.405 Q500.427 377.381 500.263 377.264 Q500.099 377.147 500.099 376.889 Q500.099 376.444 500.287 376.233 Q500.474 375.999 500.615 375.976 Q500.779 375.929 501.013 375.929 Q501.599 375.929 503.683 375.999 Q505.768 376.069 506.377 376.069 L512.42 375.929 Q513.146 375.929 513.146 376.468 Q513.146 377.123 512.888 377.287 Q512.63 377.428 511.998 377.428 Q509.164 377.428 509.164 378.576 Q509.164 378.716 509.445 379.395 L514.715 393.636 L525.841 380.824 L526.005 380.637 Q526.145 380.449 526.262 380.309 Q526.379 380.168 526.567 379.911 Q526.754 379.653 526.848 379.442 Q526.965 379.231 527.059 378.974 Q527.152 378.716 527.152 378.529 Q527.152 378.177 526.942 377.943 Q526.731 377.686 526.403 377.592 Q526.075 377.498 525.841 377.475 Q525.607 377.428 525.419 377.428 Q524.693 377.428 524.693 376.842 Q524.693 376.421 524.88 376.21 Q525.068 375.976 525.208 375.952 Q525.372 375.929 525.607 375.929 Q526.379 375.929 527.996 375.999 Q529.612 376.069 530.408 376.069 Q531.064 376.069 532.399 375.999 Q533.734 375.929 534.343 375.929 Q534.976 375.929 534.976 376.514 Z" fill="#000000" fill-rule="nonzero" fill-opacity="1" /><path clip-path="url(#clip600)" d="M540.981 401.413 Q541.028 400.827 541.941 400.827 L571.337 400.827 Q572.718 400.827 572.742 401.366 Q572.742 401.951 571.43 401.928 L542.269 401.928 Q540.981 401.951 540.981 401.413 M540.981 392.044 Q540.981 391.458 541.988 391.481 L571.29 391.481 Q572.718 391.481 572.742 392.044 Q572.742 392.582 571.524 392.582 L541.941 392.582 Q540.981 392.582 540.981 392.044 Z" fill="#000000" fill-rule="nonzero" fill-opacity="1" /><path clip-path="url(#clip600)" d="M591.233 393.355 Q591.233 386.305 593.013 382.464 Q595.496 376.749 601.351 376.749 Q602.593 376.749 603.881 377.1 Q605.193 377.428 606.832 378.716 Q608.495 380.004 609.502 382.112 Q611.423 386.188 611.423 393.355 Q611.423 400.359 609.643 404.176 Q607.043 409.751 601.304 409.751 Q599.15 409.751 596.948 408.65 Q594.77 407.549 593.388 404.902 Q591.233 400.944 591.233 393.355 M595.215 392.77 Q595.215 400.007 595.73 402.888 Q596.315 406.003 597.908 407.362 Q599.524 408.697 601.304 408.697 Q603.225 408.697 604.818 407.268 Q606.434 405.816 606.926 402.701 Q607.465 399.632 607.441 392.77 Q607.441 386.094 606.973 383.424 Q606.34 380.309 604.654 379.068 Q602.991 377.803 601.304 377.803 Q600.672 377.803 599.993 377.99 Q599.337 378.177 598.377 378.716 Q597.416 379.255 596.667 380.59 Q595.941 381.925 595.589 383.939 Q595.215 386.539 595.215 392.77 Z" fill="#000000" fill-rule="nonzero" fill-opacity="1" /><polyline clip-path="url(#clip600)" style="stroke:#c271d2; stroke-linecap:round; stroke-linejoin:round; stroke-width:4; stroke-opacity:1; fill:none" points="335.94,492.253 476.648,492.253 "/>
<path clip-path="url(#clip600)" d="M539.637 476.25 Q539.637 476.671 539.473 476.906 Q539.332 477.116 539.168 477.163 Q539.004 477.187 538.583 477.21 Q535.233 477.374 532.493 479.646 Q531.813 480.232 530.104 482.059 Q528.417 483.886 526.169 486.321 Q523.944 488.757 522.655 490.069 L528.839 504.872 Q529.096 505.458 529.19 505.715 Q529.307 505.949 529.541 506.254 Q529.799 506.558 529.987 506.652 Q530.197 506.746 530.642 506.863 Q531.111 506.957 531.579 506.98 Q532.071 506.98 532.961 507.004 Q533.242 507.004 533.359 507.027 Q533.5 507.027 533.664 507.167 Q533.828 507.285 533.828 507.566 Q533.828 507.987 533.64 508.221 Q533.476 508.432 533.313 508.456 Q533.172 508.479 532.914 508.479 Q532.305 508.479 530.244 508.409 Q528.183 508.339 527.597 508.339 L521.554 508.479 Q520.828 508.479 520.828 507.894 Q520.828 507.589 520.875 507.425 Q520.945 507.238 521.109 507.167 Q521.273 507.074 521.39 507.05 Q521.508 507.027 521.789 507.004 Q522.655 506.91 523.311 506.652 Q523.99 506.371 524.271 506.09 Q524.576 505.809 524.576 505.598 L524.342 504.919 L519.493 493.465 L515.16 498.173 L510.265 503.35 Q508.977 504.732 508.977 505.504 Q508.977 506.793 510.897 507.004 Q511.483 507.05 511.483 507.519 Q511.483 507.964 511.295 508.198 Q511.131 508.409 510.967 508.456 Q510.827 508.479 510.616 508.479 Q509.75 508.479 507.923 508.409 Q506.119 508.339 505.229 508.339 Q504.479 508.339 502.957 508.409 Q501.435 508.479 500.732 508.479 Q500.451 508.479 500.287 508.339 Q500.123 508.198 500.123 508.058 L500.099 507.94 Q500.099 507.612 500.146 507.425 Q500.217 507.238 500.404 507.144 Q500.615 507.05 500.708 507.05 Q500.802 507.027 501.153 507.004 Q503.144 506.886 504.831 506.113 Q506.541 505.341 508.204 503.537 Q508.344 503.42 508.508 503.279 Q508.696 503.139 508.836 503.022 L518.955 492.13 L513.286 478.733 Q513.029 478.124 512.794 477.866 Q512.56 477.585 511.834 477.398 Q511.108 477.21 509.703 477.21 Q509.305 477.21 509.117 477.187 Q508.93 477.163 508.766 477.046 Q508.602 476.929 508.602 476.671 Q508.602 476.226 508.766 476.016 Q508.953 475.781 509.094 475.758 Q509.258 475.711 509.468 475.711 Q510.054 475.711 512.139 475.781 Q514.223 475.852 514.832 475.852 Q515.839 475.852 517.854 475.781 Q519.891 475.711 520.875 475.711 Q521.601 475.711 521.601 476.297 Q521.601 476.671 521.437 476.882 Q521.273 477.093 521.109 477.14 Q520.945 477.187 520.641 477.21 Q519.727 477.304 519.025 477.608 Q518.346 477.889 518.064 478.17 Q517.807 478.428 517.807 478.592 L518.041 479.224 L522.07 488.757 L529.846 480.419 Q530.759 479.388 530.759 478.686 Q530.759 477.421 528.839 477.21 Q528.253 477.116 528.253 476.671 Q528.253 476.226 528.441 476.016 Q528.628 475.781 528.769 475.758 Q528.933 475.711 529.167 475.711 Q530.033 475.711 531.813 475.781 Q533.617 475.852 534.507 475.852 Q535.257 475.852 536.779 475.781 Q538.301 475.711 539.004 475.711 Q539.285 475.711 539.449 475.852 Q539.613 475.969 539.613 476.109 L539.637 476.25 Z" fill="#000000" fill-rule="nonzero" fill-opacity="1" /><path clip-path="url(#clip600)" d="M552.717 501.195 Q552.764 500.609 553.677 500.609 L583.072 500.609 Q584.454 500.609 584.478 501.148 Q584.478 501.733 583.166 501.71 L554.005 501.71 Q552.717 501.733 552.717 501.195 M552.717 491.826 Q552.717 491.24 553.724 491.264 L583.026 491.264 Q584.454 491.264 584.478 491.826 Q584.478 492.364 583.26 492.364 L553.677 492.364 Q552.717 492.364 552.717 491.826 Z" fill="#000000" fill-rule="nonzero" fill-opacity="1" /><path clip-path="url(#clip600)" d="M647.94 495.808 Q648.222 496.089 648.222 496.487 Q648.222 496.885 647.94 497.166 Q647.659 497.447 647.261 497.447 L617.234 497.447 Q616.835 497.447 616.554 497.166 Q616.273 496.885 616.273 496.487 Q616.273 496.089 616.554 495.808 Q616.835 495.527 617.234 495.527 L647.261 495.527 Q647.659 495.527 647.94 495.808 Z" fill="#000000" fill-rule="nonzero" fill-opacity="1" /><path clip-path="url(#clip600)" d="M666.525 508.479 Q666.525 507.612 666.595 507.355 Q666.689 507.097 667.064 506.699 L676.269 496.44 Q681.305 490.772 681.305 485.83 Q681.305 482.621 679.618 480.325 Q677.955 478.03 674.887 478.03 Q672.779 478.03 670.999 479.318 Q669.219 480.606 668.399 482.902 Q668.539 482.855 669.031 482.855 Q670.226 482.855 670.882 483.604 Q671.561 484.354 671.561 485.361 Q671.561 486.649 670.718 487.282 Q669.898 487.891 669.078 487.891 Q668.75 487.891 668.305 487.821 Q667.884 487.75 667.204 487.094 Q666.525 486.415 666.525 485.221 Q666.525 481.871 669.055 479.201 Q671.608 476.531 675.496 476.531 Q679.899 476.531 682.78 479.154 Q685.685 481.754 685.685 485.83 Q685.685 487.258 685.24 488.57 Q684.818 489.858 684.232 490.865 Q683.67 491.873 682.124 493.489 Q680.579 495.105 679.337 496.253 Q678.096 497.4 675.308 499.836 L670.226 504.778 L678.869 504.778 Q683.085 504.778 683.413 504.404 Q683.881 503.724 684.467 500.141 L685.685 500.141 L684.326 508.479 L666.525 508.479 Z" fill="#000000" fill-rule="nonzero" fill-opacity="1" /><polyline clip-path="url(#clip600)" style="stroke:#ac8d18; stroke-linecap:round; stroke-linejoin:round; stroke-width:4; stroke-opacity:1; fill:none" points="335.94,591.511 476.648,591.511 "/>
<path clip-path="url(#clip600)" d="M539.637 574.985 Q539.637 575.407 539.473 575.641 Q539.332 575.852 539.168 575.899 Q539.004 575.922 538.583 575.945 Q535.233 576.109 532.493 578.381 Q531.813 578.967 530.104 580.794 Q528.417 582.621 526.169 585.057 Q523.944 587.493 522.655 588.804 L528.839 603.607 Q529.096 604.193 529.19 604.451 Q529.307 604.685 529.541 604.989 Q529.799 605.294 529.987 605.387 Q530.197 605.481 530.642 605.598 Q531.111 605.692 531.579 605.715 Q532.071 605.715 532.961 605.739 Q533.242 605.739 533.359 605.762 Q533.5 605.762 533.664 605.903 Q533.828 606.02 533.828 606.301 Q533.828 606.723 533.64 606.957 Q533.476 607.168 533.313 607.191 Q533.172 607.214 532.914 607.214 Q532.305 607.214 530.244 607.144 Q528.183 607.074 527.597 607.074 L521.554 607.214 Q520.828 607.214 520.828 606.629 Q520.828 606.324 520.875 606.16 Q520.945 605.973 521.109 605.903 Q521.273 605.809 521.39 605.786 Q521.508 605.762 521.789 605.739 Q522.655 605.645 523.311 605.387 Q523.99 605.106 524.271 604.825 Q524.576 604.544 524.576 604.333 L524.342 603.654 L519.493 592.201 L515.16 596.909 L510.265 602.085 Q508.977 603.467 508.977 604.24 Q508.977 605.528 510.897 605.739 Q511.483 605.786 511.483 606.254 Q511.483 606.699 511.295 606.933 Q511.131 607.144 510.967 607.191 Q510.827 607.214 510.616 607.214 Q509.75 607.214 507.923 607.144 Q506.119 607.074 505.229 607.074 Q504.479 607.074 502.957 607.144 Q501.435 607.214 500.732 607.214 Q500.451 607.214 500.287 607.074 Q500.123 606.933 500.123 606.793 L500.099 606.676 Q500.099 606.348 500.146 606.16 Q500.217 605.973 500.404 605.879 Q500.615 605.786 500.708 605.786 Q500.802 605.762 501.153 605.739 Q503.144 605.622 504.831 604.849 Q506.541 604.076 508.204 602.272 Q508.344 602.155 508.508 602.015 Q508.696 601.874 508.836 601.757 L518.955 590.866 L513.286 577.468 Q513.029 576.859 512.794 576.601 Q512.56 576.32 511.834 576.133 Q511.108 575.945 509.703 575.945 Q509.305 575.945 509.117 575.922 Q508.93 575.899 508.766 575.782 Q508.602 575.664 508.602 575.407 Q508.602 574.962 508.766 574.751 Q508.953 574.517 509.094 574.493 Q509.258 574.446 509.468 574.446 Q510.054 574.446 512.139 574.517 Q514.223 574.587 514.832 574.587 Q515.839 574.587 517.854 574.517 Q519.891 574.446 520.875 574.446 Q521.601 574.446 521.601 575.032 Q521.601 575.407 521.437 575.618 Q521.273 575.828 521.109 575.875 Q520.945 575.922 520.641 575.945 Q519.727 576.039 519.025 576.344 Q518.346 576.625 518.064 576.906 Q517.807 577.163 517.807 577.327 L518.041 577.96 L522.07 587.493 L529.846 579.154 Q530.759 578.124 530.759 577.421 Q530.759 576.156 528.839 575.945 Q528.253 575.852 528.253 575.407 Q528.253 574.962 528.441 574.751 Q528.628 574.517 528.769 574.493 Q528.933 574.446 529.167 574.446 Q530.033 574.446 531.813 574.517 Q533.617 574.587 534.507 574.587 Q535.257 574.587 536.779 574.517 Q538.301 574.446 539.004 574.446 Q539.285 574.446 539.449 574.587 Q539.613 574.704 539.613 574.845 L539.637 574.985 Z" fill="#000000" fill-rule="nonzero" fill-opacity="1" /><path clip-path="url(#clip600)" d="M552.717 599.93 Q552.764 599.344 553.677 599.344 L583.072 599.344 Q584.454 599.344 584.478 599.883 Q584.478 600.469 583.166 600.445 L554.005 600.445 Q552.717 600.469 552.717 599.93 M552.717 590.561 Q552.717 589.976 553.724 589.999 L583.026 589.999 Q584.454 589.999 584.478 590.561 Q584.478 591.1 583.26 591.1 L553.677 591.1 Q552.717 591.1 552.717 590.561 Z" fill="#000000" fill-rule="nonzero" fill-opacity="1" /><path clip-path="url(#clip600)" d="M602.969 599.977 Q602.969 594.613 609.878 591.147 Q606.904 589.132 606.365 588.547 Q604.257 586.204 604.257 583.277 Q604.257 579.927 606.787 577.608 Q609.34 575.266 612.947 575.266 Q616.39 575.266 618.99 577.257 Q621.589 579.248 621.589 582.41 Q621.589 586.86 615.781 589.858 Q619.622 592.247 620.535 593.255 Q622.878 595.855 622.878 599.157 Q622.878 602.998 619.926 605.645 Q616.975 608.268 612.9 608.268 Q608.918 608.268 605.943 605.95 Q602.969 603.631 602.969 599.977 M605.358 599.977 Q605.358 602.952 607.583 604.942 Q609.831 606.933 612.947 606.933 Q615.968 606.933 618.217 605.2 Q620.489 603.467 620.489 600.89 Q620.489 599.883 620.137 599.017 Q619.809 598.15 619.13 597.471 Q618.474 596.768 618.053 596.464 Q617.655 596.136 616.882 595.597 L610.979 591.873 Q605.358 594.988 605.358 599.977 M606.365 581.403 Q606.365 583.698 608.777 585.291 L614.727 589.132 Q619.481 586.345 619.481 582.41 Q619.481 579.857 617.537 578.171 Q615.593 576.461 612.9 576.461 Q610.253 576.461 608.309 577.866 Q606.365 579.248 606.365 581.403 Z" fill="#000000" fill-rule="nonzero" fill-opacity="1" /></svg>
